<?xml version="1.0" encoding="UTF-8" standalone="no"?>
<!DOCTYPE svg PUBLIC "-//W3C//DTD SVG 1.1//EN"
 "http://www.w3.org/Graphics/SVG/1.1/DTD/svg11.dtd">
<!-- Generated by graphviz version 2.40.1 (20161225.0304)
 -->
<!-- Title: dependencies Pages: 1 -->
<svg width="1372pt" height="284pt"
 viewBox="0.00 0.00 1372.00 284.00" xmlns="http://www.w3.org/2000/svg" xmlns:xlink="http://www.w3.org/1999/xlink">
<g id="graph0" class="graph" transform="scale(1 1) rotate(0) translate(4 280)">
<title>dependencies</title>
<polygon fill="#ffffff" stroke="transparent" points="-4,4 -4,-280 1368,-280 1368,4 -4,4"/>
<text text-anchor="start" x="661.0091" y="-42.4" font-family="sans-serif" font-weight="bold" font-size="14.00" fill="#000000">Legend</text>
<polygon fill="#ffffb3" stroke="transparent" points="448,-10 448,-30 468,-30 468,-10 448,-10"/>
<text text-anchor="start" x="471.629" y="-15.4" font-family="sans-serif" font-size="14.00" fill="#000000"> &#160;Declarations</text>
<polygon fill="#8dd3c7" stroke="transparent" points="561,-10 561,-30 581,-30 581,-10 561,-10"/>
<text text-anchor="start" x="584.7251" y="-15.4" font-family="sans-serif" font-size="14.00" fill="#000000"> &#160;Module</text>
<polygon fill="#80b1d3" stroke="transparent" points="647,-10 647,-30 667,-30 667,-10 647,-10"/>
<text text-anchor="start" x="670.7812" y="-15.4" font-family="sans-serif" font-size="14.00" fill="#000000"> &#160;Bootstrap</text>
<polygon fill="#fdb462" stroke="transparent" points="744,-10 744,-30 764,-30 764,-10 744,-10"/>
<text text-anchor="start" x="767.6732" y="-15.4" font-family="sans-serif" font-size="14.00" fill="#000000"> &#160;Providers</text>
<polygon fill="#fb8072" stroke="transparent" points="840,-10 840,-30 860,-30 860,-10 840,-10"/>
<text text-anchor="start" x="863.7258" y="-15.4" font-family="sans-serif" font-size="14.00" fill="#000000"> &#160;Exports</text>
<g id="clust1" class="cluster">
<title>cluster_CoreModule</title>
<polygon fill="none" stroke="#000000" stroke-dasharray="1,5" points="8,-70 8,-268 1356,-268 1356,-70 8,-70"/>
</g>
<g id="clust2" class="cluster">
<title>cluster_CoreModule_declarations</title>
<polygon fill="none" stroke="#000000" points="288,-78 288,-130 1348,-130 1348,-78 288,-78"/>
</g>
<g id="clust9" class="cluster">
<title>cluster_CoreModule_imports</title>
<polygon fill="none" stroke="#000000" points="16,-78 16,-130 280,-130 280,-78 16,-78"/>
</g>
<g id="clust10" class="cluster">
<title>cluster_CoreModule_exports</title>
<polygon fill="none" stroke="#000000" points="390,-208 390,-260 840,-260 840,-208 390,-208"/>
</g>
<!-- AdminSelectionPageComponent -->
<g id="node1" class="node">
<title>AdminSelectionPageComponent</title>
<polygon fill="#ffffb3" stroke="#000000" points="1339.5308,-122 1140.4692,-122 1140.4692,-86 1339.5308,-86 1339.5308,-122"/>
<text text-anchor="middle" x="1240" y="-99.8" font-family="Times,serif" font-size="14.00" fill="#000000">AdminSelectionPageComponent</text>
</g>
<!-- CoreModule -->
<g id="node7" class="node">
<title>CoreModule</title>
<polygon fill="#8dd3c7" stroke="#000000" points="660.2619,-187 657.2619,-191 636.2619,-191 633.2619,-187 573.7381,-187 573.7381,-151 660.2619,-151 660.2619,-187"/>
<text text-anchor="middle" x="617" y="-164.8" font-family="Times,serif" font-size="14.00" fill="#000000">CoreModule</text>
</g>
<!-- AdminSelectionPageComponent&#45;&gt;CoreModule -->
<g id="edge1" class="edge">
<title>AdminSelectionPageComponent&#45;&gt;CoreModule</title>
<path fill="none" stroke="#000000" d="M1240,-122.1289C1240,-142.5724 1240,-173 1240,-173 1240,-173 670.3135,-173 670.3135,-173"/>
<polygon fill="#000000" stroke="#000000" points="670.3136,-169.5001 660.3135,-173 670.3135,-176.5001 670.3136,-169.5001"/>
</g>
<!-- ConfigSelectionPageComponent -->
<g id="node2" class="node">
<title>ConfigSelectionPageComponent</title>
<polygon fill="#ffffb3" stroke="#000000" points="1121.5308,-122 922.4692,-122 922.4692,-86 1121.5308,-86 1121.5308,-122"/>
<text text-anchor="middle" x="1022" y="-99.8" font-family="Times,serif" font-size="14.00" fill="#000000">ConfigSelectionPageComponent</text>
</g>
<!-- ConfigSelectionPageComponent&#45;&gt;CoreModule -->
<g id="edge2" class="edge">
<title>ConfigSelectionPageComponent&#45;&gt;CoreModule</title>
<path fill="none" stroke="#000000" d="M1022,-122.2667C1022,-140.5552 1022,-166 1022,-166 1022,-166 670.3421,-166 670.3421,-166"/>
<polygon fill="#000000" stroke="#000000" points="670.3421,-162.5001 660.3421,-166 670.3421,-169.5001 670.3421,-162.5001"/>
</g>
<!-- FooterComponent -->
<g id="node3" class="node">
<title>FooterComponent</title>
<polygon fill="#ffffb3" stroke="#000000" points="903.8809,-122 786.1191,-122 786.1191,-86 903.8809,-86 903.8809,-122"/>
<text text-anchor="middle" x="845" y="-99.8" font-family="Times,serif" font-size="14.00" fill="#000000">FooterComponent</text>
</g>
<!-- FooterComponent&#45;&gt;CoreModule -->
<g id="edge3" class="edge">
<title>FooterComponent&#45;&gt;CoreModule</title>
<path fill="none" stroke="#000000" d="M808.875,-122.0091C808.875,-138.0494 808.875,-159 808.875,-159 808.875,-159 670.5394,-159 670.5394,-159"/>
<polygon fill="#000000" stroke="#000000" points="670.5394,-155.5001 660.5394,-159 670.5394,-162.5001 670.5394,-155.5001"/>
</g>
<!-- LeftSidebarComponent -->
<g id="node4" class="node">
<title>LeftSidebarComponent</title>
<polygon fill="#ffffb3" stroke="#000000" points="767.9144,-122 620.0856,-122 620.0856,-86 767.9144,-86 767.9144,-122"/>
<text text-anchor="middle" x="694" y="-99.8" font-family="Times,serif" font-size="14.00" fill="#000000">LeftSidebarComponent</text>
</g>
<!-- LeftSidebarComponent&#45;&gt;CoreModule -->
<g id="edge4" class="edge">
<title>LeftSidebarComponent&#45;&gt;CoreModule</title>
<path fill="none" stroke="#000000" d="M640.337,-122.1061C640.337,-122.1061 640.337,-140.991 640.337,-140.991"/>
<polygon fill="#000000" stroke="#000000" points="636.837,-140.9909 640.337,-150.991 643.837,-140.991 636.837,-140.9909"/>
</g>
<!-- NavbarComponent -->
<g id="node5" class="node">
<title>NavbarComponent</title>
<polygon fill="#ffffb3" stroke="#000000" points="602.0297,-122 479.9703,-122 479.9703,-86 602.0297,-86 602.0297,-122"/>
<text text-anchor="middle" x="541" y="-99.8" font-family="Times,serif" font-size="14.00" fill="#000000">NavbarComponent</text>
</g>
<!-- NavbarComponent&#45;&gt;CoreModule -->
<g id="edge5" class="edge">
<title>NavbarComponent&#45;&gt;CoreModule</title>
<path fill="none" stroke="#000000" d="M587.9418,-122.1061C587.9418,-122.1061 587.9418,-140.991 587.9418,-140.991"/>
<polygon fill="#000000" stroke="#000000" points="584.4419,-140.9909 587.9418,-150.991 591.4419,-140.991 584.4419,-140.9909"/>
</g>
<!-- PageNotFoundComponent -->
<g id="node6" class="node">
<title>PageNotFoundComponent</title>
<polygon fill="#ffffb3" stroke="#000000" points="461.8243,-122 296.1757,-122 296.1757,-86 461.8243,-86 461.8243,-122"/>
<text text-anchor="middle" x="379" y="-99.8" font-family="Times,serif" font-size="14.00" fill="#000000">PageNotFoundComponent</text>
</g>
<!-- PageNotFoundComponent&#45;&gt;CoreModule -->
<g id="edge6" class="edge">
<title>PageNotFoundComponent&#45;&gt;CoreModule</title>
<path fill="none" stroke="#000000" d="M429.8238,-122.0091C429.8238,-138.0494 429.8238,-159 429.8238,-159 429.8238,-159 563.5876,-159 563.5876,-159"/>
<polygon fill="#000000" stroke="#000000" points="563.5876,-162.5001 573.5876,-159 563.5875,-155.5001 563.5876,-162.5001"/>
</g>
<!-- FooterComponent  -->
<g id="node10" class="node">
<title>FooterComponent </title>
<polygon fill="#fb8072" stroke="#000000" points="831.8814,-252 710.1186,-252 710.1186,-216 831.8814,-216 831.8814,-252"/>
<text text-anchor="middle" x="771" y="-229.8" font-family="Times,serif" font-size="14.00" fill="#000000">FooterComponent </text>
</g>
<!-- CoreModule&#45;&gt;FooterComponent  -->
<g id="edge9" class="edge">
<title>CoreModule&#45;&gt;FooterComponent </title>
<path fill="none" stroke="#000000" stroke-dasharray="5,2" d="M660.3591,-180C695.4278,-180 739.0083,-180 739.0083,-180 739.0083,-180 739.0083,-205.7181 739.0083,-205.7181"/>
<polygon fill="#000000" stroke="#000000" points="735.5083,-205.718 739.0083,-215.7181 742.5083,-205.7181 735.5083,-205.718"/>
</g>
<!-- LeftSidebarComponent  -->
<g id="node11" class="node">
<title>LeftSidebarComponent </title>
<polygon fill="#fb8072" stroke="#000000" points="692.4138,-252 541.5862,-252 541.5862,-216 692.4138,-216 692.4138,-252"/>
<text text-anchor="middle" x="617" y="-229.8" font-family="Times,serif" font-size="14.00" fill="#000000">LeftSidebarComponent </text>
</g>
<!-- CoreModule&#45;&gt;LeftSidebarComponent  -->
<g id="edge10" class="edge">
<title>CoreModule&#45;&gt;LeftSidebarComponent </title>
<path fill="none" stroke="#000000" stroke-dasharray="5,2" d="M617,-187.1061C617,-187.1061 617,-205.991 617,-205.991"/>
<polygon fill="#000000" stroke="#000000" points="613.5001,-205.9909 617,-215.991 620.5001,-205.991 613.5001,-205.9909"/>
</g>
<!-- NavbarComponent  -->
<g id="node12" class="node">
<title>NavbarComponent </title>
<polygon fill="#fb8072" stroke="#000000" points="524.0288,-252 397.9712,-252 397.9712,-216 524.0288,-216 524.0288,-252"/>
<text text-anchor="middle" x="461" y="-229.8" font-family="Times,serif" font-size="14.00" fill="#000000">NavbarComponent </text>
</g>
<!-- CoreModule&#45;&gt;NavbarComponent  -->
<g id="edge11" class="edge">
<title>CoreModule&#45;&gt;NavbarComponent </title>
<path fill="none" stroke="#000000" stroke-dasharray="5,2" d="M573.4762,-180C540.8748,-180 501.875,-180 501.875,-180 501.875,-180 501.875,-205.7181 501.875,-205.7181"/>
<polygon fill="#000000" stroke="#000000" points="498.3751,-205.718 501.875,-215.7181 505.3751,-205.7181 498.3751,-205.718"/>
</g>
<!-- CoreRoutingModule -->
<g id="node8" class="node">
<title>CoreRoutingModule</title>
<polygon fill="#8dd3c7" stroke="#000000" points="271.8795,-122 268.8795,-126 247.8795,-126 244.8795,-122 140.1205,-122 140.1205,-86 271.8795,-86 271.8795,-122"/>
<text text-anchor="middle" x="206" y="-99.8" font-family="Times,serif" font-size="14.00" fill="#000000">CoreRoutingModule</text>
</g>
<!-- CoreRoutingModule&#45;&gt;CoreModule -->
<g id="edge7" class="edge">
<title>CoreRoutingModule&#45;&gt;CoreModule</title>
<path fill="none" stroke="#000000" d="M206,-122.2667C206,-140.5552 206,-166 206,-166 206,-166 563.4049,-166 563.4049,-166"/>
<polygon fill="#000000" stroke="#000000" points="563.4049,-169.5001 573.4049,-166 563.4049,-162.5001 563.4049,-169.5001"/>
</g>
<!-- SharedModule -->
<g id="node9" class="node">
<title>SharedModule</title>
<polygon fill="#8dd3c7" stroke="#000000" points="122.4231,-122 119.4231,-126 98.4231,-126 95.4231,-122 23.5769,-122 23.5769,-86 122.4231,-86 122.4231,-122"/>
<text text-anchor="middle" x="73" y="-99.8" font-family="Times,serif" font-size="14.00" fill="#000000">SharedModule</text>
</g>
<!-- SharedModule&#45;&gt;CoreModule -->
<g id="edge8" class="edge">
<title>SharedModule&#45;&gt;CoreModule</title>
<path fill="none" stroke="#000000" d="M73,-122.1289C73,-142.5724 73,-173 73,-173 73,-173 563.4018,-173 563.4018,-173"/>
<polygon fill="#000000" stroke="#000000" points="563.4018,-176.5001 573.4018,-173 563.4017,-169.5001 563.4018,-176.5001"/>
</g>
</g>
</svg>
