<?xml version="1.0" encoding="UTF-8" standalone="no"?>
<!DOCTYPE svg PUBLIC "-//W3C//DTD SVG 1.1//EN"
 "http://www.w3.org/Graphics/SVG/1.1/DTD/svg11.dtd">
<!-- Generated by graphviz version 2.40.1 (20161225.0304)
 -->
<!-- Title: dependencies Pages: 1 -->
<svg width="582pt" height="211pt"
 viewBox="0.00 0.00 582.00 211.00" xmlns="http://www.w3.org/2000/svg" xmlns:xlink="http://www.w3.org/1999/xlink">
<g id="graph0" class="graph" transform="scale(1 1) rotate(0) translate(4 207)">
<title>dependencies</title>
<polygon fill="#ffffff" stroke="transparent" points="-4,4 -4,-207 578,-207 578,4 -4,4"/>
<text text-anchor="start" x="266.0091" y="-42.4" font-family="sans-serif" font-weight="bold" font-size="14.00" fill="#000000">Legend</text>
<polygon fill="#ffffb3" stroke="transparent" points="53,-10 53,-30 73,-30 73,-10 53,-10"/>
<text text-anchor="start" x="76.629" y="-15.4" font-family="sans-serif" font-size="14.00" fill="#000000"> &#160;Declarations</text>
<polygon fill="#8dd3c7" stroke="transparent" points="166,-10 166,-30 186,-30 186,-10 166,-10"/>
<text text-anchor="start" x="189.7251" y="-15.4" font-family="sans-serif" font-size="14.00" fill="#000000"> &#160;Module</text>
<polygon fill="#80b1d3" stroke="transparent" points="252,-10 252,-30 272,-30 272,-10 252,-10"/>
<text text-anchor="start" x="275.7812" y="-15.4" font-family="sans-serif" font-size="14.00" fill="#000000"> &#160;Bootstrap</text>
<polygon fill="#fdb462" stroke="transparent" points="349,-10 349,-30 369,-30 369,-10 349,-10"/>
<text text-anchor="start" x="372.6732" y="-15.4" font-family="sans-serif" font-size="14.00" fill="#000000"> &#160;Providers</text>
<polygon fill="#fb8072" stroke="transparent" points="445,-10 445,-30 465,-30 465,-10 445,-10"/>
<text text-anchor="start" x="468.7258" y="-15.4" font-family="sans-serif" font-size="14.00" fill="#000000"> &#160;Exports</text>
<g id="clust1" class="cluster">
<title>cluster_ClientModule</title>
<polygon fill="none" stroke="#000000" stroke-dasharray="1,5" points="8,-70 8,-195 566,-195 566,-70 8,-70"/>
</g>
<g id="clust2" class="cluster">
<title>cluster_ClientModule_declarations</title>
<polygon fill="none" stroke="#000000" points="243,-78 243,-130 558,-130 558,-78 243,-78"/>
</g>
<g id="clust5" class="cluster">
<title>cluster_ClientModule_imports</title>
<polygon fill="none" stroke="#000000" points="16,-78 16,-130 235,-130 235,-78 16,-78"/>
</g>
<!-- ClientsComponent -->
<g id="node1" class="node">
<title>ClientsComponent</title>
<polygon fill="#ffffb3" stroke="#000000" points="549.5,-122 428.5,-122 428.5,-86 549.5,-86 549.5,-122"/>
<text text-anchor="middle" x="489" y="-99.8" font-family="Times,serif" font-size="14.00" fill="#000000">ClientsComponent</text>
</g>
<!-- ClientModule -->
<g id="node3" class="node">
<title>ClientModule</title>
<polygon fill="#8dd3c7" stroke="#000000" points="303.7731,-187 300.7731,-191 279.7731,-191 276.7731,-187 210.2269,-187 210.2269,-151 303.7731,-151 303.7731,-187"/>
<text text-anchor="middle" x="257" y="-164.8" font-family="Times,serif" font-size="14.00" fill="#000000">ClientModule</text>
</g>
<!-- ClientsComponent&#45;&gt;ClientModule -->
<g id="edge1" class="edge">
<title>ClientsComponent&#45;&gt;ClientModule</title>
<path fill="none" stroke="#000000" d="M489,-122.1061C489,-141.3391 489,-169 489,-169 489,-169 313.9487,-169 313.9487,-169"/>
<polygon fill="#000000" stroke="#000000" points="313.9487,-165.5001 303.9487,-169 313.9486,-172.5001 313.9487,-165.5001"/>
</g>
<!-- GlobalClientsComponent -->
<g id="node2" class="node">
<title>GlobalClientsComponent</title>
<polygon fill="#ffffb3" stroke="#000000" points="410.6024,-122 251.3976,-122 251.3976,-86 410.6024,-86 410.6024,-122"/>
<text text-anchor="middle" x="331" y="-99.8" font-family="Times,serif" font-size="14.00" fill="#000000">GlobalClientsComponent</text>
</g>
<!-- GlobalClientsComponent&#45;&gt;ClientModule -->
<g id="edge2" class="edge">
<title>GlobalClientsComponent&#45;&gt;ClientModule</title>
<path fill="none" stroke="#000000" d="M277.6676,-122.1061C277.6676,-122.1061 277.6676,-140.991 277.6676,-140.991"/>
<polygon fill="#000000" stroke="#000000" points="274.1677,-140.9909 277.6676,-150.991 281.1677,-140.991 274.1677,-140.9909"/>
</g>
<!-- CoreModule -->
<g id="node4" class="node">
<title>CoreModule</title>
<polygon fill="#8dd3c7" stroke="#000000" points="227.2619,-122 224.2619,-126 203.2619,-126 200.2619,-122 140.7381,-122 140.7381,-86 227.2619,-86 227.2619,-122"/>
<text text-anchor="middle" x="184" y="-99.8" font-family="Times,serif" font-size="14.00" fill="#000000">CoreModule</text>
</g>
<!-- CoreModule&#45;&gt;ClientModule -->
<g id="edge3" class="edge">
<title>CoreModule&#45;&gt;ClientModule</title>
<path fill="none" stroke="#000000" d="M218.7472,-122.1061C218.7472,-122.1061 218.7472,-140.991 218.7472,-140.991"/>
<polygon fill="#000000" stroke="#000000" points="215.2473,-140.9909 218.7472,-150.991 222.2473,-140.991 215.2473,-140.9909"/>
</g>
<!-- SharedModule -->
<g id="node5" class="node">
<title>SharedModule</title>
<polygon fill="#8dd3c7" stroke="#000000" points="122.4231,-122 119.4231,-126 98.4231,-126 95.4231,-122 23.5769,-122 23.5769,-86 122.4231,-86 122.4231,-122"/>
<text text-anchor="middle" x="73" y="-99.8" font-family="Times,serif" font-size="14.00" fill="#000000">SharedModule</text>
</g>
<!-- SharedModule&#45;&gt;ClientModule -->
<g id="edge4" class="edge">
<title>SharedModule&#45;&gt;ClientModule</title>
<path fill="none" stroke="#000000" d="M73,-122.1061C73,-141.3391 73,-169 73,-169 73,-169 200.0929,-169 200.0929,-169"/>
<polygon fill="#000000" stroke="#000000" points="200.093,-172.5001 210.0929,-169 200.0929,-165.5001 200.093,-172.5001"/>
</g>
</g>
</svg>
