<?xml version="1.0" encoding="UTF-8" standalone="no"?>
<!DOCTYPE svg PUBLIC "-//W3C//DTD SVG 1.1//EN"
 "http://www.w3.org/Graphics/SVG/1.1/DTD/svg11.dtd">
<!-- Generated by graphviz version 2.40.1 (20161225.0304)
 -->
<!-- Title: dependencies Pages: 1 -->
<svg width="4034pt" height="512pt"
 viewBox="0.00 0.00 4034.00 512.00" xmlns="http://www.w3.org/2000/svg" xmlns:xlink="http://www.w3.org/1999/xlink">
<g id="graph0" class="graph" transform="scale(1 1) rotate(0) translate(4 508)">
<title>dependencies</title>
<polygon fill="#ffffff" stroke="transparent" points="-4,4 -4,-508 4030,-508 4030,4 -4,4"/>
<text text-anchor="start" x="1992.0091" y="-42.4" font-family="sans-serif" font-weight="bold" font-size="14.00" fill="#000000">Legend</text>
<polygon fill="#ffffb3" stroke="transparent" points="1779,-10 1779,-30 1799,-30 1799,-10 1779,-10"/>
<text text-anchor="start" x="1802.629" y="-15.4" font-family="sans-serif" font-size="14.00" fill="#000000"> &#160;Declarations</text>
<polygon fill="#8dd3c7" stroke="transparent" points="1892,-10 1892,-30 1912,-30 1912,-10 1892,-10"/>
<text text-anchor="start" x="1915.7251" y="-15.4" font-family="sans-serif" font-size="14.00" fill="#000000"> &#160;Module</text>
<polygon fill="#80b1d3" stroke="transparent" points="1978,-10 1978,-30 1998,-30 1998,-10 1978,-10"/>
<text text-anchor="start" x="2001.7812" y="-15.4" font-family="sans-serif" font-size="14.00" fill="#000000"> &#160;Bootstrap</text>
<polygon fill="#fdb462" stroke="transparent" points="2075,-10 2075,-30 2095,-30 2095,-10 2075,-10"/>
<text text-anchor="start" x="2098.6732" y="-15.4" font-family="sans-serif" font-size="14.00" fill="#000000"> &#160;Providers</text>
<polygon fill="#fb8072" stroke="transparent" points="2171,-10 2171,-30 2191,-30 2191,-10 2171,-10"/>
<text text-anchor="start" x="2194.7258" y="-15.4" font-family="sans-serif" font-size="14.00" fill="#000000"> &#160;Exports</text>
<g id="clust1" class="cluster">
<title>cluster_AppModule</title>
<polygon fill="none" stroke="#000000" stroke-dasharray="1,5" points="1191,-146 1191,-496 2477,-496 2477,-146 1191,-146"/>
</g>
<g id="clust2" class="cluster">
<title>cluster_AppModule_declarations</title>
<polygon fill="none" stroke="#000000" points="2347,-306 2347,-358 2469,-358 2469,-306 2347,-306"/>
</g>
<g id="clust4" class="cluster">
<title>cluster_AppModule_imports</title>
<polygon fill="none" stroke="#000000" points="1199,-154 1199,-358 2339,-358 2339,-154 1199,-154"/>
</g>
<g id="clust6" class="cluster">
<title>cluster_AppModule_bootstrap</title>
<polygon fill="none" stroke="#000000" points="1728,-436 1728,-488 1852,-488 1852,-436 1728,-436"/>
</g>
<g id="clust14" class="cluster">
<title>cluster_AuthModule</title>
<polygon fill="none" stroke="#000000" stroke-dasharray="1,5" points="2485,-298 2485,-366 2773,-366 2773,-298 2485,-298"/>
</g>
<g id="clust15" class="cluster">
<title>cluster_AuthModule_declarations</title>
<polygon fill="none" stroke="#000000" points="2635,-306 2635,-358 2765,-358 2765,-306 2635,-306"/>
</g>
<g id="clust18" class="cluster">
<title>cluster_AuthModule_exports</title>
<polygon fill="none" stroke="#000000" points="2493,-306 2493,-358 2627,-358 2627,-306 2493,-306"/>
</g>
<g id="clust27" class="cluster">
<title>cluster_ClientModule</title>
<polygon fill="none" stroke="#000000" stroke-dasharray="1,5" points="8,-222 8,-290 339,-290 339,-222 8,-222"/>
</g>
<g id="clust28" class="cluster">
<title>cluster_ClientModule_declarations</title>
<polygon fill="none" stroke="#000000" points="16,-230 16,-282 331,-282 331,-230 16,-230"/>
</g>
<g id="clust41" class="cluster">
<title>cluster_ConfigModule</title>
<polygon fill="none" stroke="#000000" stroke-dasharray="1,5" points="347,-222 347,-290 863,-290 863,-222 347,-222"/>
</g>
<g id="clust42" class="cluster">
<title>cluster_ConfigModule_declarations</title>
<polygon fill="none" stroke="#000000" points="355,-230 355,-282 855,-282 855,-230 355,-230"/>
</g>
<g id="clust56" class="cluster">
<title>cluster_CoreModule</title>
<polygon fill="none" stroke="#000000" stroke-dasharray="1,5" points="2485,-146 2485,-214 4018,-214 4018,-146 2485,-146"/>
</g>
<g id="clust57" class="cluster">
<title>cluster_CoreModule_declarations</title>
<polygon fill="none" stroke="#000000" points="2951,-154 2951,-206 4010,-206 4010,-154 2951,-154"/>
</g>
<g id="clust65" class="cluster">
<title>cluster_CoreModule_exports</title>
<polygon fill="none" stroke="#000000" points="2493,-154 2493,-206 2943,-206 2943,-154 2493,-154"/>
</g>
<g id="clust80" class="cluster">
<title>cluster_ProjectModule</title>
<polygon fill="none" stroke="#000000" stroke-dasharray="1,5" points="871,-222 871,-290 1029,-290 1029,-222 871,-222"/>
</g>
<g id="clust81" class="cluster">
<title>cluster_ProjectModule_declarations</title>
<polygon fill="none" stroke="#000000" points="879,-230 879,-282 1021,-282 1021,-230 879,-230"/>
</g>
<g id="clust93" class="cluster">
<title>cluster_SharedModule</title>
<polygon fill="none" stroke="#000000" stroke-dasharray="1,5" points="1508,-70 1508,-138 2444,-138 2444,-70 1508,-70"/>
</g>
<g id="clust94" class="cluster">
<title>cluster_SharedModule_declarations</title>
<polygon fill="none" stroke="#000000" points="2146,-78 2146,-130 2436,-130 2436,-78 2146,-78"/>
</g>
<g id="clust98" class="cluster">
<title>cluster_SharedModule_exports</title>
<polygon fill="none" stroke="#000000" points="1840,-78 1840,-130 2138,-130 2138,-78 1840,-78"/>
</g>
<g id="clust100" class="cluster">
<title>cluster_SharedModule_providers</title>
<polygon fill="none" stroke="#000000" points="1516,-78 1516,-130 1832,-130 1832,-78 1516,-78"/>
</g>
<g id="clust101" class="cluster">
<title>cluster_UserModule</title>
<polygon fill="none" stroke="#000000" stroke-dasharray="1,5" points="1037,-222 1037,-290 1183,-290 1183,-222 1037,-222"/>
</g>
<g id="clust102" class="cluster">
<title>cluster_UserModule_declarations</title>
<polygon fill="none" stroke="#000000" points="1045,-230 1045,-282 1175,-282 1175,-230 1045,-230"/>
</g>
<!-- AppComponent -->
<g id="node1" class="node">
<title>AppComponent</title>
<polygon fill="#ffffb3" stroke="#000000" points="2460.9399,-350 2355.0601,-350 2355.0601,-314 2460.9399,-314 2460.9399,-350"/>
<text text-anchor="middle" x="2408" y="-327.8" font-family="Times,serif" font-size="14.00" fill="#000000">AppComponent</text>
</g>
<!-- AppModule -->
<g id="node2" class="node">
<title>AppModule</title>
<polygon fill="#8dd3c7" stroke="#000000" points="1831.6571,-415 1828.6571,-419 1807.6571,-419 1804.6571,-415 1748.3429,-415 1748.3429,-379 1831.6571,-379 1831.6571,-415"/>
<text text-anchor="middle" x="1790" y="-392.8" font-family="Times,serif" font-size="14.00" fill="#000000">AppModule</text>
</g>
<!-- AppComponent&#45;&gt;AppModule -->
<g id="edge1" class="edge">
<title>AppComponent&#45;&gt;AppModule</title>
<path fill="none" stroke="#000000" d="M2408,-350.3228C2408,-373.6602 2408,-411 2408,-411 2408,-411 1841.9918,-411 1841.9918,-411"/>
<polygon fill="#000000" stroke="#000000" points="1841.9918,-407.5001 1831.9918,-411 1841.9918,-414.5001 1841.9918,-407.5001"/>
</g>
<!-- AppComponent  -->
<g id="node18" class="node">
<title>AppComponent </title>
<polygon fill="#80b1d3" stroke="#000000" points="1844.439,-480 1735.561,-480 1735.561,-444 1844.439,-444 1844.439,-480"/>
<text text-anchor="middle" x="1790" y="-457.8" font-family="Times,serif" font-size="14.00" fill="#000000">AppComponent </text>
</g>
<!-- AppModule&#45;&gt;AppComponent  -->
<g id="edge17" class="edge">
<title>AppModule&#45;&gt;AppComponent </title>
<path fill="none" stroke="#000000" stroke-dasharray="1,5" d="M1790,-415.1061C1790,-415.1061 1790,-433.991 1790,-433.991"/>
<polygon fill="#000000" stroke="#000000" points="1786.5001,-433.9909 1790,-443.991 1793.5001,-433.991 1786.5001,-433.9909"/>
</g>
<!-- AppRoutingModule -->
<g id="node3" class="node">
<title>AppRoutingModule</title>
<polygon fill="#8dd3c7" stroke="#000000" points="1335.2744,-198 1332.2744,-202 1311.2744,-202 1308.2744,-198 1206.7256,-198 1206.7256,-162 1335.2744,-162 1335.2744,-198"/>
<text text-anchor="middle" x="1271" y="-175.8" font-family="Times,serif" font-size="14.00" fill="#000000">AppRoutingModule</text>
</g>
<!-- AppRoutingModule&#45;&gt;AppModule -->
<g id="edge2" class="edge">
<title>AppRoutingModule&#45;&gt;AppModule</title>
<path fill="none" stroke="#000000" d="M1271,-198.2728C1271,-252.3763 1271,-408 1271,-408 1271,-408 1737.9677,-408 1737.9677,-408"/>
<polygon fill="#000000" stroke="#000000" points="1737.9677,-411.5001 1747.9677,-408 1737.9676,-404.5001 1737.9677,-411.5001"/>
</g>
<!-- AuthModule -->
<g id="node4" class="node">
<title>AuthModule</title>
<polygon fill="#8dd3c7" stroke="#000000" points="2330.5482,-274 2327.5482,-278 2306.5482,-278 2303.5482,-274 2243.4518,-274 2243.4518,-238 2330.5482,-238 2330.5482,-274"/>
<text text-anchor="middle" x="2287" y="-251.8" font-family="Times,serif" font-size="14.00" fill="#000000">AuthModule</text>
</g>
<!-- AuthModule&#45;&gt;AppModule -->
<g id="edge3" class="edge">
<title>AuthModule&#45;&gt;AppModule</title>
<path fill="none" stroke="#000000" d="M2287,-274.0935C2287,-313.9889 2287,-406 2287,-406 2287,-406 1841.9456,-406 1841.9456,-406"/>
<polygon fill="#000000" stroke="#000000" points="1841.9456,-402.5001 1831.9456,-406 1841.9456,-409.5001 1841.9456,-402.5001"/>
</g>
<!-- LoginComponent  -->
<g id="node20" class="node">
<title>LoginComponent </title>
<polygon fill="#fb8072" stroke="#000000" points="2619.2759,-350 2500.7241,-350 2500.7241,-314 2619.2759,-314 2619.2759,-350"/>
<text text-anchor="middle" x="2560" y="-327.8" font-family="Times,serif" font-size="14.00" fill="#000000">LoginComponent </text>
</g>
<!-- AuthModule&#45;&gt;LoginComponent  -->
<g id="edge20" class="edge">
<title>AuthModule&#45;&gt;LoginComponent </title>
<path fill="none" stroke="#000000" stroke-dasharray="5,2" d="M2330.8282,-262C2412.4967,-262 2579.7537,-262 2579.7537,-262 2579.7537,-262 2579.7537,-303.9733 2579.7537,-303.9733"/>
<polygon fill="#000000" stroke="#000000" points="2576.2538,-303.9732 2579.7537,-313.9733 2583.2538,-303.9733 2576.2538,-303.9732"/>
</g>
<!-- AuthRoutingModule -->
<g id="node5" class="node">
<title>AuthRoutingModule</title>
<polygon fill="#8dd3c7" stroke="#000000" points="2181.1652,-198 2178.1652,-202 2157.1652,-202 2154.1652,-198 2048.8348,-198 2048.8348,-162 2181.1652,-162 2181.1652,-198"/>
<text text-anchor="middle" x="2115" y="-175.8" font-family="Times,serif" font-size="14.00" fill="#000000">AuthRoutingModule</text>
</g>
<!-- AuthRoutingModule&#45;&gt;AppModule -->
<g id="edge4" class="edge">
<title>AuthRoutingModule&#45;&gt;AppModule</title>
<path fill="none" stroke="#000000" d="M2050.6266,-198.0579C2050.6266,-202.4945 2050.6266,-206 2050.6266,-206 2050.6266,-206 1793.851,-206 1793.851,-206 1793.851,-206 1793.851,-368.6861 1793.851,-368.6861"/>
<polygon fill="#000000" stroke="#000000" points="1790.3511,-368.6861 1793.851,-378.6861 1797.3511,-368.6862 1790.3511,-368.6861"/>
</g>
<!-- AuthRoutingModule&#45;&gt;AuthModule -->
<g id="edge19" class="edge">
<title>AuthRoutingModule&#45;&gt;AuthModule</title>
<path fill="none" stroke="#000000" d="M2131.0859,-198.027C2131.0859,-214.3976 2131.0859,-236 2131.0859,-236 2131.0859,-236 2286.8868,-236 2286.8868,-236 2286.8868,-236 2286.8868,-236.1846 2286.8868,-236.1846"/>
<polygon fill="#000000" stroke="#000000" points="2283.3874,-227.8455 2286.8868,-237.8457 2290.3874,-227.8459 2283.3874,-227.8455"/>
</g>
<!-- ClientModule -->
<g id="node6" class="node">
<title>ClientModule</title>
<polygon fill="#8dd3c7" stroke="#000000" points="1779.7731,-350 1776.7731,-354 1755.7731,-354 1752.7731,-350 1686.2269,-350 1686.2269,-314 1779.7731,-314 1779.7731,-350"/>
<text text-anchor="middle" x="1733" y="-327.8" font-family="Times,serif" font-size="14.00" fill="#000000">ClientModule</text>
</g>
<!-- ClientModule&#45;&gt;AppModule -->
<g id="edge5" class="edge">
<title>ClientModule&#45;&gt;AppModule</title>
<path fill="none" stroke="#000000" d="M1764.0291,-350.1061C1764.0291,-350.1061 1764.0291,-368.991 1764.0291,-368.991"/>
<polygon fill="#000000" stroke="#000000" points="1760.5292,-368.9909 1764.0291,-378.991 1767.5292,-368.991 1760.5292,-368.9909"/>
</g>
<!-- ClientRoutingModule -->
<g id="node7" class="node">
<title>ClientRoutingModule</title>
<polygon fill="#8dd3c7" stroke="#000000" points="1492.3906,-198 1489.3906,-202 1468.3906,-202 1465.3906,-198 1353.6094,-198 1353.6094,-162 1492.3906,-162 1492.3906,-198"/>
<text text-anchor="middle" x="1423" y="-175.8" font-family="Times,serif" font-size="14.00" fill="#000000">ClientRoutingModule</text>
</g>
<!-- ClientRoutingModule&#45;&gt;AppModule -->
<g id="edge6" class="edge">
<title>ClientRoutingModule&#45;&gt;AppModule</title>
<path fill="none" stroke="#000000" d="M1423,-198.0854C1423,-250.8666 1423,-401 1423,-401 1423,-401 1738.2577,-401 1738.2577,-401"/>
<polygon fill="#000000" stroke="#000000" points="1738.2578,-404.5001 1748.2577,-401 1738.2577,-397.5001 1738.2578,-404.5001"/>
</g>
<!-- ConfigModule -->
<g id="node8" class="node">
<title>ConfigModule</title>
<polygon fill="#8dd3c7" stroke="#000000" points="1896.4386,-350 1893.4386,-354 1872.4386,-354 1869.4386,-350 1797.5614,-350 1797.5614,-314 1896.4386,-314 1896.4386,-350"/>
<text text-anchor="middle" x="1847" y="-327.8" font-family="Times,serif" font-size="14.00" fill="#000000">ConfigModule</text>
</g>
<!-- ConfigModule&#45;&gt;AppModule -->
<g id="edge7" class="edge">
<title>ConfigModule&#45;&gt;AppModule</title>
<path fill="none" stroke="#000000" d="M1814.8047,-350.1061C1814.8047,-350.1061 1814.8047,-368.991 1814.8047,-368.991"/>
<polygon fill="#000000" stroke="#000000" points="1811.3048,-368.9909 1814.8047,-378.991 1818.3048,-368.991 1811.3048,-368.9909"/>
</g>
<!-- ConfigRoutingModule -->
<g id="node9" class="node">
<title>ConfigRoutingModule</title>
<polygon fill="#8dd3c7" stroke="#000000" points="1653.5561,-198 1650.5561,-202 1629.5561,-202 1626.5561,-198 1510.4439,-198 1510.4439,-162 1653.5561,-162 1653.5561,-198"/>
<text text-anchor="middle" x="1582" y="-175.8" font-family="Times,serif" font-size="14.00" fill="#000000">ConfigRoutingModule</text>
</g>
<!-- ConfigRoutingModule&#45;&gt;AppModule -->
<g id="edge8" class="edge">
<title>ConfigRoutingModule&#45;&gt;AppModule</title>
<path fill="none" stroke="#000000" d="M1582,-198.2455C1582,-249.9967 1582,-394 1582,-394 1582,-394 1737.9081,-394 1737.9081,-394"/>
<polygon fill="#000000" stroke="#000000" points="1737.9081,-397.5001 1747.9081,-394 1737.9081,-390.5001 1737.9081,-397.5001"/>
</g>
<!-- CoreModule -->
<g id="node10" class="node">
<title>CoreModule</title>
<polygon fill="#8dd3c7" stroke="#000000" points="2062.2619,-274 2059.2619,-278 2038.2619,-278 2035.2619,-274 1975.7381,-274 1975.7381,-238 2062.2619,-238 2062.2619,-274"/>
<text text-anchor="middle" x="2019" y="-251.8" font-family="Times,serif" font-size="14.00" fill="#000000">CoreModule</text>
</g>
<!-- CoreModule&#45;&gt;AppModule -->
<g id="edge9" class="edge">
<title>CoreModule&#45;&gt;AppModule</title>
<path fill="none" stroke="#000000" d="M2009.1932,-274.0773C2009.1932,-310.2287 2009.1932,-388 2009.1932,-388 2009.1932,-388 1841.7445,-388 1841.7445,-388"/>
<polygon fill="#000000" stroke="#000000" points="1841.7445,-384.5001 1831.7445,-388 1841.7445,-391.5001 1841.7445,-384.5001"/>
</g>
<!-- CoreModule&#45;&gt;ClientModule -->
<g id="edge23" class="edge">
<title>CoreModule&#45;&gt;ClientModule</title>
<path fill="none" stroke="#000000" d="M1975.5924,-260C1905.369,-260 1774.6258,-260 1774.6258,-260 1774.6258,-260 1774.6258,-303.8314 1774.6258,-303.8314"/>
<polygon fill="#000000" stroke="#000000" points="1771.1259,-303.8313 1774.6258,-313.8314 1778.1259,-303.8314 1771.1259,-303.8313"/>
</g>
<!-- CoreModule&#45;&gt;ConfigModule -->
<g id="edge28" class="edge">
<title>CoreModule&#45;&gt;ConfigModule</title>
<path fill="none" stroke="#000000" d="M1975.7232,-267C1934.8644,-267 1879.8125,-267 1879.8125,-267 1879.8125,-267 1879.8125,-303.8939 1879.8125,-303.8939"/>
<polygon fill="#000000" stroke="#000000" points="1876.3126,-303.8938 1879.8125,-313.8939 1883.3126,-303.8939 1876.3126,-303.8938"/>
</g>
<!-- ProjectModule -->
<g id="node13" class="node">
<title>ProjectModule</title>
<polygon fill="#8dd3c7" stroke="#000000" points="2117.7036,-350 2114.7036,-354 2093.7036,-354 2090.7036,-350 2018.2964,-350 2018.2964,-314 2117.7036,-314 2117.7036,-350"/>
<text text-anchor="middle" x="2068" y="-327.8" font-family="Times,serif" font-size="14.00" fill="#000000">ProjectModule</text>
</g>
<!-- CoreModule&#45;&gt;ProjectModule -->
<g id="edge42" class="edge">
<title>CoreModule&#45;&gt;ProjectModule</title>
<path fill="none" stroke="#000000" d="M2047.72,-274.0109C2047.72,-274.0109 2047.72,-303.855 2047.72,-303.855"/>
<polygon fill="#000000" stroke="#000000" points="2044.2201,-303.8549 2047.72,-313.855 2051.2201,-303.855 2044.2201,-303.8549"/>
</g>
<!-- UserModule -->
<g id="node16" class="node">
<title>UserModule</title>
<polygon fill="#8dd3c7" stroke="#000000" points="1999.9762,-350 1996.9762,-354 1975.9762,-354 1972.9762,-350 1914.0238,-350 1914.0238,-314 1999.9762,-314 1999.9762,-350"/>
<text text-anchor="middle" x="1957" y="-327.8" font-family="Times,serif" font-size="14.00" fill="#000000">UserModule</text>
</g>
<!-- CoreModule&#45;&gt;UserModule -->
<g id="edge51" class="edge">
<title>CoreModule&#45;&gt;UserModule</title>
<path fill="none" stroke="#000000" d="M1987.8037,-274.0109C1987.8037,-274.0109 1987.8037,-303.855 1987.8037,-303.855"/>
<polygon fill="#000000" stroke="#000000" points="1984.3037,-303.8549 1987.8037,-313.855 1991.3037,-303.855 1984.3037,-303.8549"/>
</g>
<!-- FooterComponent  -->
<g id="node32" class="node">
<title>FooterComponent </title>
<polygon fill="#fb8072" stroke="#000000" points="2934.8814,-198 2813.1186,-198 2813.1186,-162 2934.8814,-162 2934.8814,-198"/>
<text text-anchor="middle" x="2874" y="-175.8" font-family="Times,serif" font-size="14.00" fill="#000000">FooterComponent </text>
</g>
<!-- CoreModule&#45;&gt;FooterComponent  -->
<g id="edge38" class="edge">
<title>CoreModule&#45;&gt;FooterComponent </title>
<path fill="none" stroke="#000000" stroke-dasharray="5,2" d="M2060.4218,-237.9672C2060.4218,-231.1474 2060.4218,-225 2060.4218,-225 2060.4218,-225 2874,-225 2874,-225 2874,-225 2874,-208.0439 2874,-208.0439"/>
<polygon fill="#000000" stroke="#000000" points="2877.5001,-208.0439 2874,-198.0439 2870.5001,-208.044 2877.5001,-208.0439"/>
</g>
<!-- LeftSidebarComponent  -->
<g id="node33" class="node">
<title>LeftSidebarComponent </title>
<polygon fill="#fb8072" stroke="#000000" points="2795.4138,-198 2644.5862,-198 2644.5862,-162 2795.4138,-162 2795.4138,-198"/>
<text text-anchor="middle" x="2720" y="-175.8" font-family="Times,serif" font-size="14.00" fill="#000000">LeftSidebarComponent </text>
</g>
<!-- CoreModule&#45;&gt;LeftSidebarComponent  -->
<g id="edge39" class="edge">
<title>CoreModule&#45;&gt;LeftSidebarComponent </title>
<path fill="none" stroke="#000000" stroke-dasharray="5,2" d="M2058.4627,-237.8056C2058.4627,-229.7218 2058.4627,-222 2058.4627,-222 2058.4627,-222 2682.158,-222 2682.158,-222 2682.158,-222 2682.158,-208.0555 2682.158,-208.0555"/>
<polygon fill="#000000" stroke="#000000" points="2685.6581,-208.0555 2682.158,-198.0555 2678.6581,-208.0556 2685.6581,-208.0555"/>
</g>
<!-- NavbarComponent  -->
<g id="node34" class="node">
<title>NavbarComponent </title>
<polygon fill="#fb8072" stroke="#000000" points="2627.0288,-198 2500.9712,-198 2500.9712,-162 2627.0288,-162 2627.0288,-198"/>
<text text-anchor="middle" x="2564" y="-175.8" font-family="Times,serif" font-size="14.00" fill="#000000">NavbarComponent </text>
</g>
<!-- CoreModule&#45;&gt;NavbarComponent  -->
<g id="edge40" class="edge">
<title>CoreModule&#45;&gt;NavbarComponent </title>
<path fill="none" stroke="#000000" stroke-dasharray="5,2" d="M2056.5037,-237.5782C2056.5037,-228.7209 2056.5037,-220 2056.5037,-220 2056.5037,-220 2540.3697,-220 2540.3697,-220 2540.3697,-220 2540.3697,-208.1274 2540.3697,-208.1274"/>
<polygon fill="#000000" stroke="#000000" points="2543.8698,-208.1274 2540.3697,-198.1274 2536.8698,-208.1275 2543.8698,-208.1274"/>
</g>
<!-- CoreRoutingModule -->
<g id="node11" class="node">
<title>CoreRoutingModule</title>
<polygon fill="#8dd3c7" stroke="#000000" points="1913.8795,-198 1910.8795,-202 1889.8795,-202 1886.8795,-198 1782.1205,-198 1782.1205,-162 1913.8795,-162 1913.8795,-198"/>
<text text-anchor="middle" x="1848" y="-175.8" font-family="Times,serif" font-size="14.00" fill="#000000">CoreRoutingModule</text>
</g>
<!-- CoreRoutingModule&#45;&gt;AppModule -->
<g id="edge10" class="edge">
<title>CoreRoutingModule&#45;&gt;AppModule</title>
<path fill="none" stroke="#000000" d="M1785.9905,-198.1281C1785.9905,-198.1281 1785.9905,-368.7709 1785.9905,-368.7709"/>
<polygon fill="#000000" stroke="#000000" points="1782.4906,-368.7709 1785.9905,-378.7709 1789.4906,-368.771 1782.4906,-368.7709"/>
</g>
<!-- CoreRoutingModule&#45;&gt;CoreModule -->
<g id="edge36" class="edge">
<title>CoreRoutingModule&#45;&gt;CoreModule</title>
<path fill="none" stroke="#000000" d="M1905.0793,-198.0348C1905.0793,-217.5762 1905.0793,-246 1905.0793,-246 1905.0793,-246 1965.6065,-246 1965.6065,-246"/>
<polygon fill="#000000" stroke="#000000" points="1965.6065,-249.5001 1975.6065,-246 1965.6064,-242.5001 1965.6065,-249.5001"/>
</g>
<!-- MockModule -->
<g id="node12" class="node">
<title>MockModule</title>
<polygon fill="#8dd3c7" stroke="#000000" points="1764.2092,-198 1761.2092,-202 1740.2092,-202 1737.2092,-198 1671.7908,-198 1671.7908,-162 1764.2092,-162 1764.2092,-198"/>
<text text-anchor="middle" x="1718" y="-175.8" font-family="Times,serif" font-size="14.00" fill="#000000">MockModule</text>
</g>
<!-- MockModule&#45;&gt;AppModule -->
<g id="edge11" class="edge">
<title>MockModule&#45;&gt;AppModule</title>
<path fill="none" stroke="#000000" d="M1679.0046,-198.0078C1679.0046,-248.3696 1679.0046,-387 1679.0046,-387 1679.0046,-387 1738.0374,-387 1738.0374,-387"/>
<polygon fill="#000000" stroke="#000000" points="1738.0374,-390.5001 1748.0374,-387 1738.0373,-383.5001 1738.0374,-390.5001"/>
</g>
<!-- ProjectModule&#45;&gt;AppModule -->
<g id="edge12" class="edge">
<title>ProjectModule&#45;&gt;AppModule</title>
<path fill="none" stroke="#000000" d="M2068,-350.302C2068,-368.2699 2068,-393 2068,-393 2068,-393 1841.9204,-393 1841.9204,-393"/>
<polygon fill="#000000" stroke="#000000" points="1841.9204,-389.5001 1831.9204,-393 1841.9204,-396.5001 1841.9204,-389.5001"/>
</g>
<!-- ProjectRoutingModule -->
<g id="node14" class="node">
<title>ProjectRoutingModule</title>
<polygon fill="#8dd3c7" stroke="#000000" points="2225.3216,-274 2222.3216,-278 2201.3216,-278 2198.3216,-274 2080.6784,-274 2080.6784,-238 2225.3216,-238 2225.3216,-274"/>
<text text-anchor="middle" x="2153" y="-251.8" font-family="Times,serif" font-size="14.00" fill="#000000">ProjectRoutingModule</text>
</g>
<!-- ProjectRoutingModule&#45;&gt;AppModule -->
<g id="edge13" class="edge">
<title>ProjectRoutingModule&#45;&gt;AppModule</title>
<path fill="none" stroke="#000000" d="M2171.3812,-274.1446C2171.3812,-312.2265 2171.3812,-397 2171.3812,-397 2171.3812,-397 1841.9054,-397 1841.9054,-397"/>
<polygon fill="#000000" stroke="#000000" points="1841.9054,-393.5001 1831.9054,-397 1841.9054,-400.5001 1841.9054,-393.5001"/>
</g>
<!-- ProjectRoutingModule&#45;&gt;ProjectModule -->
<g id="edge43" class="edge">
<title>ProjectRoutingModule&#45;&gt;ProjectModule</title>
<path fill="none" stroke="#000000" d="M2099.2206,-274.0109C2099.2206,-274.0109 2099.2206,-303.855 2099.2206,-303.855"/>
<polygon fill="#000000" stroke="#000000" points="2095.7206,-303.8549 2099.2206,-313.855 2102.7206,-303.855 2095.7206,-303.8549"/>
</g>
<!-- SharedModule -->
<g id="node15" class="node">
<title>SharedModule</title>
<polygon fill="#8dd3c7" stroke="#000000" points="2030.4231,-198 2027.4231,-202 2006.4231,-202 2003.4231,-198 1931.5769,-198 1931.5769,-162 2030.4231,-162 2030.4231,-198"/>
<text text-anchor="middle" x="1981" y="-175.8" font-family="Times,serif" font-size="14.00" fill="#000000">SharedModule</text>
</g>
<!-- SharedModule&#45;&gt;AppModule -->
<g id="edge14" class="edge">
<title>SharedModule&#45;&gt;AppModule</title>
<path fill="none" stroke="#000000" d="M1949.321,-198.1903C1949.321,-201.5376 1949.321,-204 1949.321,-204 1949.321,-204 1789.9208,-204 1789.9208,-204 1789.9208,-204 1789.9208,-368.843 1789.9208,-368.843"/>
<polygon fill="#000000" stroke="#000000" points="1786.4208,-368.843 1789.9208,-378.843 1793.4208,-368.8431 1786.4208,-368.843"/>
</g>
<!-- SharedModule&#45;&gt;ClientModule -->
<g id="edge24" class="edge">
<title>SharedModule&#45;&gt;ClientModule</title>
<path fill="none" stroke="#000000" d="M1940.555,-198.08C1940.555,-199.8464 1940.555,-201 1940.555,-201 1940.555,-201 1769.3651,-201 1769.3651,-201 1769.3651,-201 1769.3651,-303.785 1769.3651,-303.785"/>
<polygon fill="#000000" stroke="#000000" points="1765.8652,-303.785 1769.3651,-313.785 1772.8652,-303.785 1765.8652,-303.785"/>
</g>
<!-- SharedModule&#45;&gt;ConfigModule -->
<g id="edge29" class="edge">
<title>SharedModule&#45;&gt;ConfigModule</title>
<path fill="none" stroke="#000000" d="M1958.0871,-198.2396C1958.0871,-213.5706 1958.0871,-233 1958.0871,-233 1958.0871,-233 1863.4063,-233 1863.4063,-233 1863.4063,-233 1863.4063,-303.8419 1863.4063,-303.8419"/>
<polygon fill="#000000" stroke="#000000" points="1859.9064,-303.8418 1863.4063,-313.8419 1866.9064,-303.8419 1859.9064,-303.8418"/>
</g>
<!-- SharedModule&#45;&gt;CoreModule -->
<g id="edge37" class="edge">
<title>SharedModule&#45;&gt;CoreModule</title>
<path fill="none" stroke="#000000" d="M2002.9152,-198.0109C2002.9152,-198.0109 2002.9152,-227.855 2002.9152,-227.855"/>
<polygon fill="#000000" stroke="#000000" points="1999.4152,-227.8549 2002.9152,-237.855 2006.4152,-227.855 1999.4152,-227.8549"/>
</g>
<!-- SharedModule&#45;&gt;UserModule -->
<g id="edge52" class="edge">
<title>SharedModule&#45;&gt;UserModule</title>
<path fill="none" stroke="#000000" d="M1966.8531,-198.0333C1966.8531,-198.0333 1966.8531,-303.9902 1966.8531,-303.9902"/>
<polygon fill="#000000" stroke="#000000" points="1963.3532,-303.9901 1966.8531,-313.9902 1970.3532,-303.9902 1963.3532,-303.9901"/>
</g>
<!-- DropDownComponent  -->
<g id="node38" class="node">
<title>DropDownComponent </title>
<polygon fill="#fb8072" stroke="#000000" points="2129.8129,-122 1982.1871,-122 1982.1871,-86 2129.8129,-86 2129.8129,-122"/>
<text text-anchor="middle" x="2056" y="-99.8" font-family="Times,serif" font-size="14.00" fill="#000000">DropDownComponent </text>
</g>
<!-- SharedModule&#45;&gt;DropDownComponent  -->
<g id="edge46" class="edge">
<title>SharedModule&#45;&gt;DropDownComponent </title>
<path fill="none" stroke="#000000" stroke-dasharray="5,2" d="M1994.123,-161.9891C1994.123,-161.9891 1994.123,-132.145 1994.123,-132.145"/>
<polygon fill="#000000" stroke="#000000" points="1997.6231,-132.145 1994.123,-122.145 1990.6231,-132.1451 1997.6231,-132.145"/>
</g>
<!-- ToastComponent  -->
<g id="node39" class="node">
<title>ToastComponent </title>
<polygon fill="#fb8072" stroke="#000000" points="1963.9348,-122 1848.0652,-122 1848.0652,-86 1963.9348,-86 1963.9348,-122"/>
<text text-anchor="middle" x="1906" y="-99.8" font-family="Times,serif" font-size="14.00" fill="#000000">ToastComponent </text>
</g>
<!-- SharedModule&#45;&gt;ToastComponent  -->
<g id="edge47" class="edge">
<title>SharedModule&#45;&gt;ToastComponent </title>
<path fill="none" stroke="#000000" stroke-dasharray="5,2" d="M1955.9228,-161.9891C1955.9228,-161.9891 1955.9228,-132.145 1955.9228,-132.145"/>
<polygon fill="#000000" stroke="#000000" points="1959.4229,-132.145 1955.9228,-122.145 1952.4229,-132.1451 1959.4229,-132.145"/>
</g>
<!-- UserModule&#45;&gt;AppModule -->
<g id="edge15" class="edge">
<title>UserModule&#45;&gt;AppModule</title>
<path fill="none" stroke="#000000" d="M1957,-350.1871C1957,-365.1824 1957,-384 1957,-384 1957,-384 1841.7104,-384 1841.7104,-384"/>
<polygon fill="#000000" stroke="#000000" points="1841.7104,-380.5001 1831.7104,-384 1841.7103,-387.5001 1841.7104,-380.5001"/>
</g>
<!-- UserRoutingModule -->
<g id="node17" class="node">
<title>UserRoutingModule</title>
<polygon fill="#8dd3c7" stroke="#000000" points="2330.594,-198 2327.594,-202 2306.594,-202 2303.594,-198 2199.406,-198 2199.406,-162 2330.594,-162 2330.594,-198"/>
<text text-anchor="middle" x="2265" y="-175.8" font-family="Times,serif" font-size="14.00" fill="#000000">UserRoutingModule</text>
</g>
<!-- UserRoutingModule&#45;&gt;AppModule -->
<g id="edge16" class="edge">
<title>UserRoutingModule&#45;&gt;AppModule</title>
<path fill="none" stroke="#000000" d="M2234.1936,-198.1672C2234.1936,-251.1873 2234.1936,-402 2234.1936,-402 2234.1936,-402 1841.7887,-402 1841.7887,-402"/>
<polygon fill="#000000" stroke="#000000" points="1841.7887,-398.5001 1831.7887,-402 1841.7886,-405.5001 1841.7887,-398.5001"/>
</g>
<!-- LoginComponent -->
<g id="node19" class="node">
<title>LoginComponent</title>
<polygon fill="#ffffb3" stroke="#000000" points="2757.2758,-350 2642.7242,-350 2642.7242,-314 2757.2758,-314 2757.2758,-350"/>
<text text-anchor="middle" x="2700" y="-327.8" font-family="Times,serif" font-size="14.00" fill="#000000">LoginComponent</text>
</g>
<!-- LoginComponent&#45;&gt;AuthModule -->
<g id="edge18" class="edge">
<title>LoginComponent&#45;&gt;AuthModule</title>
<path fill="none" stroke="#000000" d="M2719.7729,-313.8015C2719.7729,-289.6437 2719.7729,-250 2719.7729,-250 2719.7729,-250 2340.8782,-250 2340.8782,-250"/>
<polygon fill="#000000" stroke="#000000" points="2340.8782,-246.5001 2330.8782,-250 2340.8782,-253.5001 2340.8782,-246.5001"/>
</g>
<!-- ClientsComponent -->
<g id="node21" class="node">
<title>ClientsComponent</title>
<polygon fill="#ffffb3" stroke="#000000" points="145.5,-274 24.5,-274 24.5,-238 145.5,-238 145.5,-274"/>
<text text-anchor="middle" x="85" y="-251.8" font-family="Times,serif" font-size="14.00" fill="#000000">ClientsComponent</text>
</g>
<!-- ClientsComponent&#45;&gt;ClientModule -->
<g id="edge21" class="edge">
<title>ClientsComponent&#45;&gt;ClientModule</title>
<path fill="none" stroke="#000000" d="M85,-274.1985C85,-298.3563 85,-338 85,-338 85,-338 1675.8955,-338 1675.8955,-338"/>
<polygon fill="#000000" stroke="#000000" points="1675.8955,-341.5001 1685.8955,-338 1675.8954,-334.5001 1675.8955,-341.5001"/>
</g>
<!-- GlobalClientsComponent -->
<g id="node22" class="node">
<title>GlobalClientsComponent</title>
<polygon fill="#ffffb3" stroke="#000000" points="322.6024,-274 163.3976,-274 163.3976,-238 322.6024,-238 322.6024,-274"/>
<text text-anchor="middle" x="243" y="-251.8" font-family="Times,serif" font-size="14.00" fill="#000000">GlobalClientsComponent</text>
</g>
<!-- GlobalClientsComponent&#45;&gt;ClientModule -->
<g id="edge22" class="edge">
<title>GlobalClientsComponent&#45;&gt;ClientModule</title>
<path fill="none" stroke="#000000" d="M243,-274.0267C243,-294.7672 243,-326 243,-326 243,-326 1675.9463,-326 1675.9463,-326"/>
<polygon fill="#000000" stroke="#000000" points="1675.9464,-329.5001 1685.9463,-326 1675.9463,-322.5001 1675.9464,-329.5001"/>
</g>
<!-- ConfigsComponent -->
<g id="node23" class="node">
<title>ConfigsComponent</title>
<polygon fill="#ffffb3" stroke="#000000" points="846.6652,-274 721.3348,-274 721.3348,-238 846.6652,-238 846.6652,-274"/>
<text text-anchor="middle" x="784" y="-251.8" font-family="Times,serif" font-size="14.00" fill="#000000">ConfigsComponent</text>
</g>
<!-- ConfigsComponent&#45;&gt;ConfigModule -->
<g id="edge25" class="edge">
<title>ConfigsComponent&#45;&gt;ConfigModule</title>
<path fill="none" stroke="#000000" d="M784,-274.1944C784,-282.2782 784,-290 784,-290 784,-290 1847,-290 1847,-290 1847,-290 1847,-303.9445 1847,-303.9445"/>
<polygon fill="#000000" stroke="#000000" points="1843.5001,-303.9444 1847,-313.9445 1850.5001,-303.9445 1843.5001,-303.9444"/>
</g>
<!-- ConfigsTableComponent -->
<g id="node24" class="node">
<title>ConfigsTableComponent</title>
<polygon fill="#ffffb3" stroke="#000000" points="702.5379,-274 545.4621,-274 545.4621,-238 702.5379,-238 702.5379,-274"/>
<text text-anchor="middle" x="624" y="-251.8" font-family="Times,serif" font-size="14.00" fill="#000000">ConfigsTableComponent</text>
</g>
<!-- ConfigsTableComponent&#45;&gt;ConfigModule -->
<g id="edge26" class="edge">
<title>ConfigsTableComponent&#45;&gt;ConfigModule</title>
<path fill="none" stroke="#000000" d="M624,-274.0555C624,-285.439 624,-298 624,-298 624,-298 1830.5937,-298 1830.5937,-298 1830.5937,-298 1830.5937,-303.8056 1830.5937,-303.8056"/>
<polygon fill="#000000" stroke="#000000" points="1827.0938,-303.8055 1830.5937,-313.8056 1834.0938,-303.8056 1827.0938,-303.8055"/>
</g>
<!-- GlobalConfigsComponent -->
<g id="node25" class="node">
<title>GlobalConfigsComponent</title>
<polygon fill="#ffffb3" stroke="#000000" points="526.7674,-274 363.2326,-274 363.2326,-238 526.7674,-238 526.7674,-274"/>
<text text-anchor="middle" x="445" y="-251.8" font-family="Times,serif" font-size="14.00" fill="#000000">GlobalConfigsComponent</text>
</g>
<!-- GlobalConfigsComponent&#45;&gt;ConfigModule -->
<g id="edge27" class="edge">
<title>GlobalConfigsComponent&#45;&gt;ConfigModule</title>
<path fill="none" stroke="#000000" d="M445,-274.0511C445,-288.373 445,-306 445,-306 445,-306 1814.1875,-306 1814.1875,-306 1814.1875,-306 1814.1875,-306.7942 1814.1875,-306.7942"/>
<polygon fill="#000000" stroke="#000000" points="1810.6876,-303.9421 1814.1875,-313.9421 1817.6876,-303.9422 1810.6876,-303.9421"/>
</g>
<!-- AdminSelectionPageComponent -->
<g id="node26" class="node">
<title>AdminSelectionPageComponent</title>
<polygon fill="#ffffb3" stroke="#000000" points="3512.5308,-198 3313.4692,-198 3313.4692,-162 3512.5308,-162 3512.5308,-198"/>
<text text-anchor="middle" x="3413" y="-175.8" font-family="Times,serif" font-size="14.00" fill="#000000">AdminSelectionPageComponent</text>
</g>
<!-- AdminSelectionPageComponent&#45;&gt;CoreModule -->
<g id="edge30" class="edge">
<title>AdminSelectionPageComponent&#45;&gt;CoreModule</title>
<path fill="none" stroke="#000000" d="M3413,-198.2015C3413,-204.028 3413,-209 3413,-209 3413,-209 2033.9024,-209 2033.9024,-209 2033.9024,-209 2033.9024,-227.963 2033.9024,-227.963"/>
<polygon fill="#000000" stroke="#000000" points="2030.4025,-227.963 2033.9024,-237.963 2037.4025,-227.963 2030.4025,-227.963"/>
</g>
<!-- ConfigSelectionPageComponent -->
<g id="node27" class="node">
<title>ConfigSelectionPageComponent</title>
<polygon fill="#ffffb3" stroke="#000000" points="3294.5308,-198 3095.4692,-198 3095.4692,-162 3294.5308,-162 3294.5308,-198"/>
<text text-anchor="middle" x="3195" y="-175.8" font-family="Times,serif" font-size="14.00" fill="#000000">ConfigSelectionPageComponent</text>
</g>
<!-- ConfigSelectionPageComponent&#45;&gt;CoreModule -->
<g id="edge31" class="edge">
<title>ConfigSelectionPageComponent&#45;&gt;CoreModule</title>
<path fill="none" stroke="#000000" d="M3195,-198.0511C3195,-212.373 3195,-230 3195,-230 3195,-230 2054.5447,-230 2054.5447,-230 2054.5447,-230 2054.5447,-230.7942 2054.5447,-230.7942"/>
<polygon fill="#000000" stroke="#000000" points="2051.0448,-227.9421 2054.5447,-237.9421 2058.0448,-227.9422 2051.0448,-227.9421"/>
</g>
<!-- FooterComponent -->
<g id="node28" class="node">
<title>FooterComponent</title>
<polygon fill="#ffffb3" stroke="#000000" points="3076.8809,-198 2959.1191,-198 2959.1191,-162 3076.8809,-162 3076.8809,-198"/>
<text text-anchor="middle" x="3018" y="-175.8" font-family="Times,serif" font-size="14.00" fill="#000000">FooterComponent</text>
</g>
<!-- FooterComponent&#45;&gt;CoreModule -->
<g id="edge32" class="edge">
<title>FooterComponent&#45;&gt;CoreModule</title>
<path fill="none" stroke="#000000" d="M3018,-198.1467C3018,-211.7395 3018,-228 3018,-228 3018,-228 2052.5857,-228 2052.5857,-228 2052.5857,-228 2052.5857,-228.9793 2052.5857,-228.9793"/>
<polygon fill="#000000" stroke="#000000" points="2049.0858,-227.793 2052.5857,-237.793 2056.0858,-227.7931 2049.0858,-227.793"/>
</g>
<!-- LeftSidebarComponent -->
<g id="node29" class="node">
<title>LeftSidebarComponent</title>
<polygon fill="#ffffb3" stroke="#000000" points="4001.9144,-198 3854.0856,-198 3854.0856,-162 4001.9144,-162 4001.9144,-198"/>
<text text-anchor="middle" x="3928" y="-175.8" font-family="Times,serif" font-size="14.00" fill="#000000">LeftSidebarComponent</text>
</g>
<!-- LeftSidebarComponent&#45;&gt;CoreModule -->
<g id="edge33" class="edge">
<title>LeftSidebarComponent&#45;&gt;CoreModule</title>
<path fill="none" stroke="#000000" d="M3928,-198.0664C3928,-207.4587 3928,-217 3928,-217 3928,-217 2044.9763,-217 2044.9763,-217 2044.9763,-217 2044.9763,-227.8701 2044.9763,-227.8701"/>
<polygon fill="#000000" stroke="#000000" points="2041.4764,-227.8701 2044.9763,-237.8701 2048.4764,-227.8701 2041.4764,-227.8701"/>
</g>
<!-- NavbarComponent -->
<g id="node30" class="node">
<title>NavbarComponent</title>
<polygon fill="#ffffb3" stroke="#000000" points="3836.0297,-198 3713.9703,-198 3713.9703,-162 3836.0297,-162 3836.0297,-198"/>
<text text-anchor="middle" x="3775" y="-175.8" font-family="Times,serif" font-size="14.00" fill="#000000">NavbarComponent</text>
</g>
<!-- NavbarComponent&#45;&gt;CoreModule -->
<g id="edge34" class="edge">
<title>NavbarComponent&#45;&gt;CoreModule</title>
<path fill="none" stroke="#000000" d="M3775,-198.1944C3775,-206.2782 3775,-214 3775,-214 3775,-214 2041.285,-214 2041.285,-214 2041.285,-214 2041.285,-227.9445 2041.285,-227.9445"/>
<polygon fill="#000000" stroke="#000000" points="2037.7851,-227.9444 2041.285,-237.9445 2044.7851,-227.9445 2037.7851,-227.9444"/>
</g>
<!-- PageNotFoundComponent -->
<g id="node31" class="node">
<title>PageNotFoundComponent</title>
<polygon fill="#ffffb3" stroke="#000000" points="3695.8243,-198 3530.1757,-198 3530.1757,-162 3695.8243,-162 3695.8243,-198"/>
<text text-anchor="middle" x="3613" y="-175.8" font-family="Times,serif" font-size="14.00" fill="#000000">PageNotFoundComponent</text>
</g>
<!-- PageNotFoundComponent&#45;&gt;CoreModule -->
<g id="edge35" class="edge">
<title>PageNotFoundComponent&#45;&gt;CoreModule</title>
<path fill="none" stroke="#000000" d="M3613,-198.2434C3613,-205.4297 3613,-212 3613,-212 3613,-212 2037.5937,-212 2037.5937,-212 2037.5937,-212 2037.5937,-227.8495 2037.5937,-227.8495"/>
<polygon fill="#000000" stroke="#000000" points="2034.0938,-227.8494 2037.5937,-237.8495 2041.0938,-227.8495 2034.0938,-227.8494"/>
</g>
<!-- ProjectsComponent -->
<g id="node35" class="node">
<title>ProjectsComponent</title>
<polygon fill="#ffffb3" stroke="#000000" points="1013.4313,-274 886.5687,-274 886.5687,-238 1013.4313,-238 1013.4313,-274"/>
<text text-anchor="middle" x="950" y="-251.8" font-family="Times,serif" font-size="14.00" fill="#000000">ProjectsComponent</text>
</g>
<!-- ProjectsComponent&#45;&gt;ProjectModule -->
<g id="edge41" class="edge">
<title>ProjectsComponent&#45;&gt;ProjectModule</title>
<path fill="none" stroke="#000000" d="M950,-274.0579C950,-278.4945 950,-282 950,-282 950,-282 2033.0591,-282 2033.0591,-282 2033.0591,-282 2033.0591,-303.9489 2033.0591,-303.9489"/>
<polygon fill="#000000" stroke="#000000" points="2029.5592,-303.9488 2033.0591,-313.9489 2036.5592,-303.9489 2029.5592,-303.9488"/>
</g>
<!-- DropDownComponent -->
<g id="node36" class="node">
<title>DropDownComponent</title>
<polygon fill="#ffffb3" stroke="#000000" points="2428.3131,-122 2283.6869,-122 2283.6869,-86 2428.3131,-86 2428.3131,-122"/>
<text text-anchor="middle" x="2356" y="-99.8" font-family="Times,serif" font-size="14.00" fill="#000000">DropDownComponent</text>
</g>
<!-- DropDownComponent&#45;&gt;SharedModule -->
<g id="edge44" class="edge">
<title>DropDownComponent&#45;&gt;SharedModule</title>
<path fill="none" stroke="#000000" d="M2307.1953,-122.0511C2307.1953,-136.373 2307.1953,-154 2307.1953,-154 2307.1953,-154 2018.1817,-154 2018.1817,-154 2018.1817,-154 2018.1817,-154.7942 2018.1817,-154.7942"/>
<polygon fill="#000000" stroke="#000000" points="2014.6819,-151.9421 2018.1817,-161.9421 2021.6819,-151.9422 2014.6819,-151.9421"/>
</g>
<!-- ToastComponent -->
<g id="node37" class="node">
<title>ToastComponent</title>
<polygon fill="#ffffb3" stroke="#000000" points="2266.4356,-122 2153.5644,-122 2153.5644,-86 2266.4356,-86 2266.4356,-122"/>
<text text-anchor="middle" x="2210" y="-99.8" font-family="Times,serif" font-size="14.00" fill="#000000">ToastComponent</text>
</g>
<!-- ToastComponent&#45;&gt;SharedModule -->
<g id="edge45" class="edge">
<title>ToastComponent&#45;&gt;SharedModule</title>
<path fill="none" stroke="#000000" d="M2167.5575,-122.0555C2167.5575,-133.439 2167.5575,-146 2167.5575,-146 2167.5575,-146 2006.1524,-146 2006.1524,-146 2006.1524,-146 2006.1524,-151.8056 2006.1524,-151.8056"/>
<polygon fill="#000000" stroke="#000000" points="2002.6524,-151.8055 2006.1524,-161.8056 2009.6524,-151.8056 2002.6524,-151.8055"/>
</g>
<!-- ErrorInterceptor -->
<g id="node40" class="node">
<title>ErrorInterceptor</title>
<ellipse fill="#fdb462" stroke="#000000" cx="1750" cy="-104" rx="73.5329" ry="18"/>
<text text-anchor="middle" x="1750" y="-99.8" font-family="Times,serif" font-size="14.00" fill="#000000">ErrorInterceptor</text>
</g>
<!-- ErrorInterceptor&#45;&gt;SharedModule -->
<g id="edge48" class="edge">
<title>ErrorInterceptor&#45;&gt;SharedModule</title>
<path fill="none" stroke="#000000" d="M1802.9132,-116.6953C1802.9132,-123.2953 1802.9132,-130 1802.9132,-130 1802.9132,-130 1947.8782,-130 1947.8782,-130 1947.8782,-130 1947.8782,-151.9489 1947.8782,-151.9489"/>
<polygon fill="#000000" stroke="#000000" points="1944.3782,-151.9488 1947.8782,-161.9489 1951.3782,-151.9489 1944.3782,-151.9488"/>
</g>
<!-- JwtInterceptor -->
<g id="node41" class="node">
<title>JwtInterceptor</title>
<ellipse fill="#fdb462" stroke="#000000" cx="1591" cy="-104" rx="66.6094" ry="18"/>
<text text-anchor="middle" x="1591" y="-99.8" font-family="Times,serif" font-size="14.00" fill="#000000">JwtInterceptor</text>
</g>
<!-- JwtInterceptor&#45;&gt;SharedModule -->
<g id="edge49" class="edge">
<title>JwtInterceptor&#45;&gt;SharedModule</title>
<path fill="none" stroke="#000000" d="M1588.9867,-122.1944C1588.9867,-130.2782 1588.9867,-138 1588.9867,-138 1588.9867,-138 1939.8335,-138 1939.8335,-138 1939.8335,-138 1939.8335,-151.9445 1939.8335,-151.9445"/>
<polygon fill="#000000" stroke="#000000" points="1936.3336,-151.9444 1939.8335,-161.9445 1943.3336,-151.9445 1936.3336,-151.9444"/>
</g>
<!-- UsersComponent -->
<g id="node42" class="node">
<title>UsersComponent</title>
<polygon fill="#ffffb3" stroke="#000000" points="1166.7036,-274 1053.2964,-274 1053.2964,-238 1166.7036,-238 1166.7036,-274"/>
<text text-anchor="middle" x="1110" y="-251.8" font-family="Times,serif" font-size="14.00" fill="#000000">UsersComponent</text>
</g>
<!-- UsersComponent&#45;&gt;UserModule -->
<g id="edge50" class="edge">
<title>UsersComponent&#45;&gt;UserModule</title>
<path fill="none" stroke="#000000" d="M1166.8385,-253C1351.5296,-253 1922.9004,-253 1922.9004,-253 1922.9004,-253 1922.9004,-303.6772 1922.9004,-303.6772"/>
<polygon fill="#000000" stroke="#000000" points="1919.4005,-303.6772 1922.9004,-313.6772 1926.4005,-303.6773 1919.4005,-303.6772"/>
</g>
</g>
</svg>
