<?xml version="1.0" encoding="UTF-8" standalone="no"?>
<!DOCTYPE svg PUBLIC "-//W3C//DTD SVG 1.1//EN"
 "http://www.w3.org/Graphics/SVG/1.1/DTD/svg11.dtd">
<!-- Generated by graphviz version 2.40.1 (20161225.0304)
 -->
<!-- Title: dependencies Pages: 1 -->
<svg width="654pt" height="284pt"
 viewBox="0.00 0.00 654.00 284.00" xmlns="http://www.w3.org/2000/svg" xmlns:xlink="http://www.w3.org/1999/xlink">
<g id="graph0" class="graph" transform="scale(1 1) rotate(0) translate(4 280)">
<title>dependencies</title>
<polygon fill="#ffffff" stroke="transparent" points="-4,4 -4,-280 650,-280 650,4 -4,4"/>
<text text-anchor="start" x="302.0091" y="-42.4" font-family="sans-serif" font-weight="bold" font-size="14.00" fill="#000000">Legend</text>
<polygon fill="#ffffb3" stroke="transparent" points="89,-10 89,-30 109,-30 109,-10 89,-10"/>
<text text-anchor="start" x="112.629" y="-15.4" font-family="sans-serif" font-size="14.00" fill="#000000"> &#160;Declarations</text>
<polygon fill="#8dd3c7" stroke="transparent" points="202,-10 202,-30 222,-30 222,-10 202,-10"/>
<text text-anchor="start" x="225.7251" y="-15.4" font-family="sans-serif" font-size="14.00" fill="#000000"> &#160;Module</text>
<polygon fill="#80b1d3" stroke="transparent" points="288,-10 288,-30 308,-30 308,-10 288,-10"/>
<text text-anchor="start" x="311.7812" y="-15.4" font-family="sans-serif" font-size="14.00" fill="#000000"> &#160;Bootstrap</text>
<polygon fill="#fdb462" stroke="transparent" points="385,-10 385,-30 405,-30 405,-10 385,-10"/>
<text text-anchor="start" x="408.6732" y="-15.4" font-family="sans-serif" font-size="14.00" fill="#000000"> &#160;Providers</text>
<polygon fill="#fb8072" stroke="transparent" points="481,-10 481,-30 501,-30 501,-10 481,-10"/>
<text text-anchor="start" x="504.7258" y="-15.4" font-family="sans-serif" font-size="14.00" fill="#000000"> &#160;Exports</text>
<g id="clust1" class="cluster">
<title>cluster_SharedModule</title>
<polygon fill="none" stroke="#000000" stroke-dasharray="1,5" points="8,-70 8,-268 638,-268 638,-70 8,-70"/>
</g>
<g id="clust2" class="cluster">
<title>cluster_SharedModule_declarations</title>
<polygon fill="none" stroke="#000000" points="340,-78 340,-130 630,-130 630,-78 340,-78"/>
</g>
<g id="clust6" class="cluster">
<title>cluster_SharedModule_exports</title>
<polygon fill="none" stroke="#000000" points="183,-208 183,-260 481,-260 481,-208 183,-208"/>
</g>
<g id="clust8" class="cluster">
<title>cluster_SharedModule_providers</title>
<polygon fill="none" stroke="#000000" points="16,-78 16,-130 332,-130 332,-78 16,-78"/>
</g>
<!-- DropDownComponent -->
<g id="node1" class="node">
<title>DropDownComponent</title>
<polygon fill="#ffffb3" stroke="#000000" points="622.3131,-122 477.6869,-122 477.6869,-86 622.3131,-86 622.3131,-122"/>
<text text-anchor="middle" x="550" y="-99.8" font-family="Times,serif" font-size="14.00" fill="#000000">DropDownComponent</text>
</g>
<!-- SharedModule -->
<g id="node3" class="node">
<title>SharedModule</title>
<polygon fill="#8dd3c7" stroke="#000000" points="373.4231,-187 370.4231,-191 349.4231,-191 346.4231,-187 274.5769,-187 274.5769,-151 373.4231,-151 373.4231,-187"/>
<text text-anchor="middle" x="324" y="-164.8" font-family="Times,serif" font-size="14.00" fill="#000000">SharedModule</text>
</g>
<!-- DropDownComponent&#45;&gt;SharedModule -->
<g id="edge1" class="edge">
<title>DropDownComponent&#45;&gt;SharedModule</title>
<path fill="none" stroke="#000000" d="M550,-122.1061C550,-141.3391 550,-169 550,-169 550,-169 383.3174,-169 383.3174,-169"/>
<polygon fill="#000000" stroke="#000000" points="383.3174,-165.5001 373.3174,-169 383.3174,-172.5001 383.3174,-165.5001"/>
</g>
<!-- ToastComponent -->
<g id="node2" class="node">
<title>ToastComponent</title>
<polygon fill="#ffffb3" stroke="#000000" points="460.4356,-122 347.5644,-122 347.5644,-86 460.4356,-86 460.4356,-122"/>
<text text-anchor="middle" x="404" y="-99.8" font-family="Times,serif" font-size="14.00" fill="#000000">ToastComponent</text>
</g>
<!-- ToastComponent&#45;&gt;SharedModule -->
<g id="edge2" class="edge">
<title>ToastComponent&#45;&gt;SharedModule</title>
<path fill="none" stroke="#000000" d="M360.4969,-122.1061C360.4969,-122.1061 360.4969,-140.991 360.4969,-140.991"/>
<polygon fill="#000000" stroke="#000000" points="356.9969,-140.9909 360.4969,-150.991 363.9969,-140.991 356.9969,-140.9909"/>
</g>
<!-- DropDownComponent  -->
<g id="node4" class="node">
<title>DropDownComponent </title>
<polygon fill="#fb8072" stroke="#000000" points="472.8129,-252 325.1871,-252 325.1871,-216 472.8129,-216 472.8129,-252"/>
<text text-anchor="middle" x="399" y="-229.8" font-family="Times,serif" font-size="14.00" fill="#000000">DropDownComponent </text>
</g>
<!-- SharedModule&#45;&gt;DropDownComponent  -->
<g id="edge3" class="edge">
<title>SharedModule&#45;&gt;DropDownComponent </title>
<path fill="none" stroke="#000000" stroke-dasharray="5,2" d="M349.1523,-187.1061C349.1523,-187.1061 349.1523,-205.991 349.1523,-205.991"/>
<polygon fill="#000000" stroke="#000000" points="345.6524,-205.9909 349.1523,-215.991 352.6524,-205.991 345.6524,-205.9909"/>
</g>
<!-- ToastComponent  -->
<g id="node5" class="node">
<title>ToastComponent </title>
<polygon fill="#fb8072" stroke="#000000" points="306.9348,-252 191.0652,-252 191.0652,-216 306.9348,-216 306.9348,-252"/>
<text text-anchor="middle" x="249" y="-229.8" font-family="Times,serif" font-size="14.00" fill="#000000">ToastComponent </text>
</g>
<!-- SharedModule&#45;&gt;ToastComponent  -->
<g id="edge4" class="edge">
<title>SharedModule&#45;&gt;ToastComponent </title>
<path fill="none" stroke="#000000" stroke-dasharray="5,2" d="M290.8782,-187.1061C290.8782,-187.1061 290.8782,-205.991 290.8782,-205.991"/>
<polygon fill="#000000" stroke="#000000" points="287.3782,-205.9909 290.8782,-215.991 294.3782,-205.991 287.3782,-205.9909"/>
</g>
<!-- ErrorInterceptor -->
<g id="node6" class="node">
<title>ErrorInterceptor</title>
<ellipse fill="#fdb462" stroke="#000000" cx="250" cy="-104" rx="73.5329" ry="18"/>
<text text-anchor="middle" x="250" y="-99.8" font-family="Times,serif" font-size="14.00" fill="#000000">ErrorInterceptor</text>
</g>
<!-- ErrorInterceptor&#45;&gt;SharedModule -->
<g id="edge5" class="edge">
<title>ErrorInterceptor&#45;&gt;SharedModule</title>
<path fill="none" stroke="#000000" d="M299.2775,-117.468C299.2775,-117.468 299.2775,-140.8642 299.2775,-140.8642"/>
<polygon fill="#000000" stroke="#000000" points="295.7776,-140.8641 299.2775,-150.8642 302.7776,-140.8642 295.7776,-140.8641"/>
</g>
<!-- JwtInterceptor -->
<g id="node7" class="node">
<title>JwtInterceptor</title>
<ellipse fill="#fdb462" stroke="#000000" cx="91" cy="-104" rx="66.6094" ry="18"/>
<text text-anchor="middle" x="91" y="-99.8" font-family="Times,serif" font-size="14.00" fill="#000000">JwtInterceptor</text>
</g>
<!-- JwtInterceptor&#45;&gt;SharedModule -->
<g id="edge6" class="edge">
<title>JwtInterceptor&#45;&gt;SharedModule</title>
<path fill="none" stroke="#000000" d="M91,-122.1061C91,-141.3391 91,-169 91,-169 91,-169 264.5867,-169 264.5867,-169"/>
<polygon fill="#000000" stroke="#000000" points="264.5867,-172.5001 274.5867,-169 264.5867,-165.5001 264.5867,-172.5001"/>
</g>
</g>
</svg>
