<?xml version="1.0" encoding="UTF-8" standalone="no"?>
<!DOCTYPE svg PUBLIC "-//W3C//DTD SVG 1.1//EN"
 "http://www.w3.org/Graphics/SVG/1.1/DTD/svg11.dtd">
<!-- Generated by graphviz version 2.40.1 (20161225.0304)
 -->
<!-- Title: dependencies Pages: 1 -->
<svg width="767pt" height="211pt"
 viewBox="0.00 0.00 767.00 211.00" xmlns="http://www.w3.org/2000/svg" xmlns:xlink="http://www.w3.org/1999/xlink">
<g id="graph0" class="graph" transform="scale(1 1) rotate(0) translate(4 207)">
<title>dependencies</title>
<polygon fill="#ffffff" stroke="transparent" points="-4,4 -4,-207 763,-207 763,4 -4,4"/>
<text text-anchor="start" x="358.5091" y="-42.4" font-family="sans-serif" font-weight="bold" font-size="14.00" fill="#000000">Legend</text>
<polygon fill="#ffffb3" stroke="transparent" points="145.5,-10 145.5,-30 165.5,-30 165.5,-10 145.5,-10"/>
<text text-anchor="start" x="169.129" y="-15.4" font-family="sans-serif" font-size="14.00" fill="#000000"> &#160;Declarations</text>
<polygon fill="#8dd3c7" stroke="transparent" points="258.5,-10 258.5,-30 278.5,-30 278.5,-10 258.5,-10"/>
<text text-anchor="start" x="282.2251" y="-15.4" font-family="sans-serif" font-size="14.00" fill="#000000"> &#160;Module</text>
<polygon fill="#80b1d3" stroke="transparent" points="344.5,-10 344.5,-30 364.5,-30 364.5,-10 344.5,-10"/>
<text text-anchor="start" x="368.2812" y="-15.4" font-family="sans-serif" font-size="14.00" fill="#000000"> &#160;Bootstrap</text>
<polygon fill="#fdb462" stroke="transparent" points="441.5,-10 441.5,-30 461.5,-30 461.5,-10 441.5,-10"/>
<text text-anchor="start" x="465.1732" y="-15.4" font-family="sans-serif" font-size="14.00" fill="#000000"> &#160;Providers</text>
<polygon fill="#fb8072" stroke="transparent" points="537.5,-10 537.5,-30 557.5,-30 557.5,-10 537.5,-10"/>
<text text-anchor="start" x="561.2258" y="-15.4" font-family="sans-serif" font-size="14.00" fill="#000000"> &#160;Exports</text>
<g id="clust1" class="cluster">
<title>cluster_ConfigModule</title>
<polygon fill="none" stroke="#000000" stroke-dasharray="1,5" points="8,-70 8,-195 751,-195 751,-70 8,-70"/>
</g>
<g id="clust2" class="cluster">
<title>cluster_ConfigModule_declarations</title>
<polygon fill="none" stroke="#000000" points="243,-78 243,-130 743,-130 743,-78 243,-78"/>
</g>
<g id="clust6" class="cluster">
<title>cluster_ConfigModule_imports</title>
<polygon fill="none" stroke="#000000" points="16,-78 16,-130 235,-130 235,-78 16,-78"/>
</g>
<!-- ConfigsComponent -->
<g id="node1" class="node">
<title>ConfigsComponent</title>
<polygon fill="#ffffb3" stroke="#000000" points="734.6652,-122 609.3348,-122 609.3348,-86 734.6652,-86 734.6652,-122"/>
<text text-anchor="middle" x="672" y="-99.8" font-family="Times,serif" font-size="14.00" fill="#000000">ConfigsComponent</text>
</g>
<!-- ConfigModule -->
<g id="node4" class="node">
<title>ConfigModule</title>
<polygon fill="#8dd3c7" stroke="#000000" points="382.4386,-187 379.4386,-191 358.4386,-191 355.4386,-187 283.5614,-187 283.5614,-151 382.4386,-151 382.4386,-187"/>
<text text-anchor="middle" x="333" y="-164.8" font-family="Times,serif" font-size="14.00" fill="#000000">ConfigModule</text>
</g>
<!-- ConfigsComponent&#45;&gt;ConfigModule -->
<g id="edge1" class="edge">
<title>ConfigsComponent&#45;&gt;ConfigModule</title>
<path fill="none" stroke="#000000" d="M672,-122.2843C672,-143.3211 672,-175 672,-175 672,-175 392.2935,-175 392.2935,-175"/>
<polygon fill="#000000" stroke="#000000" points="392.2935,-171.5001 382.2935,-175 392.2935,-178.5001 392.2935,-171.5001"/>
</g>
<!-- ConfigsTableComponent -->
<g id="node2" class="node">
<title>ConfigsTableComponent</title>
<polygon fill="#ffffb3" stroke="#000000" points="590.5379,-122 433.4621,-122 433.4621,-86 590.5379,-86 590.5379,-122"/>
<text text-anchor="middle" x="512" y="-99.8" font-family="Times,serif" font-size="14.00" fill="#000000">ConfigsTableComponent</text>
</g>
<!-- ConfigsTableComponent&#45;&gt;ConfigModule -->
<g id="edge2" class="edge">
<title>ConfigsTableComponent&#45;&gt;ConfigModule</title>
<path fill="none" stroke="#000000" d="M512,-122.0225C512,-139.3734 512,-163 512,-163 512,-163 392.3864,-163 392.3864,-163"/>
<polygon fill="#000000" stroke="#000000" points="392.3864,-159.5001 382.3864,-163 392.3863,-166.5001 392.3864,-159.5001"/>
</g>
<!-- GlobalConfigsComponent -->
<g id="node3" class="node">
<title>GlobalConfigsComponent</title>
<polygon fill="#ffffb3" stroke="#000000" points="414.7674,-122 251.2326,-122 251.2326,-86 414.7674,-86 414.7674,-122"/>
<text text-anchor="middle" x="333" y="-99.8" font-family="Times,serif" font-size="14.00" fill="#000000">GlobalConfigsComponent</text>
</g>
<!-- GlobalConfigsComponent&#45;&gt;ConfigModule -->
<g id="edge3" class="edge">
<title>GlobalConfigsComponent&#45;&gt;ConfigModule</title>
<path fill="none" stroke="#000000" d="M333,-122.1061C333,-122.1061 333,-140.991 333,-140.991"/>
<polygon fill="#000000" stroke="#000000" points="329.5001,-140.9909 333,-150.991 336.5001,-140.991 329.5001,-140.9909"/>
</g>
<!-- CoreModule -->
<g id="node5" class="node">
<title>CoreModule</title>
<polygon fill="#8dd3c7" stroke="#000000" points="227.2619,-122 224.2619,-126 203.2619,-126 200.2619,-122 140.7381,-122 140.7381,-86 227.2619,-86 227.2619,-122"/>
<text text-anchor="middle" x="184" y="-99.8" font-family="Times,serif" font-size="14.00" fill="#000000">CoreModule</text>
</g>
<!-- CoreModule&#45;&gt;ConfigModule -->
<g id="edge4" class="edge">
<title>CoreModule&#45;&gt;ConfigModule</title>
<path fill="none" stroke="#000000" d="M184,-122.0225C184,-139.3734 184,-163 184,-163 184,-163 273.3852,-163 273.3852,-163"/>
<polygon fill="#000000" stroke="#000000" points="273.3852,-166.5001 283.3852,-163 273.3851,-159.5001 273.3852,-166.5001"/>
</g>
<!-- SharedModule -->
<g id="node6" class="node">
<title>SharedModule</title>
<polygon fill="#8dd3c7" stroke="#000000" points="122.4231,-122 119.4231,-126 98.4231,-126 95.4231,-122 23.5769,-122 23.5769,-86 122.4231,-86 122.4231,-122"/>
<text text-anchor="middle" x="73" y="-99.8" font-family="Times,serif" font-size="14.00" fill="#000000">SharedModule</text>
</g>
<!-- SharedModule&#45;&gt;ConfigModule -->
<g id="edge5" class="edge">
<title>SharedModule&#45;&gt;ConfigModule</title>
<path fill="none" stroke="#000000" d="M73,-122.2843C73,-143.3211 73,-175 73,-175 73,-175 273.484,-175 273.484,-175"/>
<polygon fill="#000000" stroke="#000000" points="273.484,-178.5001 283.484,-175 273.484,-171.5001 273.484,-178.5001"/>
</g>
</g>
</svg>
