<?xml version="1.0" encoding="UTF-8" standalone="no"?>
<!DOCTYPE svg PUBLIC "-//W3C//DTD SVG 1.1//EN"
 "http://www.w3.org/Graphics/SVG/1.1/DTD/svg11.dtd">
<!-- Generated by graphviz version 2.40.1 (20161225.0304)
 -->
<!-- Title: dependencies Pages: 1 -->
<svg width="504pt" height="211pt"
 viewBox="0.00 0.00 504.00 211.00" xmlns="http://www.w3.org/2000/svg" xmlns:xlink="http://www.w3.org/1999/xlink">
<g id="graph0" class="graph" transform="scale(1 1) rotate(0) translate(4 207)">
<title>dependencies</title>
<polygon fill="#ffffff" stroke="transparent" points="-4,4 -4,-207 500,-207 500,4 -4,4"/>
<text text-anchor="start" x="227.0091" y="-42.4" font-family="sans-serif" font-weight="bold" font-size="14.00" fill="#000000">Legend</text>
<polygon fill="#ffffb3" stroke="transparent" points="14,-10 14,-30 34,-30 34,-10 14,-10"/>
<text text-anchor="start" x="37.629" y="-15.4" font-family="sans-serif" font-size="14.00" fill="#000000"> &#160;Declarations</text>
<polygon fill="#8dd3c7" stroke="transparent" points="127,-10 127,-30 147,-30 147,-10 127,-10"/>
<text text-anchor="start" x="150.7251" y="-15.4" font-family="sans-serif" font-size="14.00" fill="#000000"> &#160;Module</text>
<polygon fill="#80b1d3" stroke="transparent" points="213,-10 213,-30 233,-30 233,-10 213,-10"/>
<text text-anchor="start" x="236.7812" y="-15.4" font-family="sans-serif" font-size="14.00" fill="#000000"> &#160;Bootstrap</text>
<polygon fill="#fdb462" stroke="transparent" points="310,-10 310,-30 330,-30 330,-10 310,-10"/>
<text text-anchor="start" x="333.6732" y="-15.4" font-family="sans-serif" font-size="14.00" fill="#000000"> &#160;Providers</text>
<polygon fill="#fb8072" stroke="transparent" points="406,-10 406,-30 426,-30 426,-10 406,-10"/>
<text text-anchor="start" x="429.7258" y="-15.4" font-family="sans-serif" font-size="14.00" fill="#000000"> &#160;Exports</text>
<g id="clust1" class="cluster">
<title>cluster_ProjectModule</title>
<polygon fill="none" stroke="#000000" stroke-dasharray="1,5" points="32.5,-70 32.5,-195 463.5,-195 463.5,-70 32.5,-70"/>
</g>
<g id="clust2" class="cluster">
<title>cluster_ProjectModule_declarations</title>
<polygon fill="none" stroke="#000000" points="313.5,-78 313.5,-130 455.5,-130 455.5,-78 313.5,-78"/>
</g>
<g id="clust4" class="cluster">
<title>cluster_ProjectModule_imports</title>
<polygon fill="none" stroke="#000000" points="40.5,-78 40.5,-130 305.5,-130 305.5,-78 40.5,-78"/>
</g>
<!-- ProjectsComponent -->
<g id="node1" class="node">
<title>ProjectsComponent</title>
<polygon fill="#ffffb3" stroke="#000000" points="447.9313,-122 321.0687,-122 321.0687,-86 447.9313,-86 447.9313,-122"/>
<text text-anchor="middle" x="384.5" y="-99.8" font-family="Times,serif" font-size="14.00" fill="#000000">ProjectsComponent</text>
</g>
<!-- ProjectModule -->
<g id="node2" class="node">
<title>ProjectModule</title>
<polygon fill="#8dd3c7" stroke="#000000" points="304.2036,-187 301.2036,-191 280.2036,-191 277.2036,-187 204.7964,-187 204.7964,-151 304.2036,-151 304.2036,-187"/>
<text text-anchor="middle" x="254.5" y="-164.8" font-family="Times,serif" font-size="14.00" fill="#000000">ProjectModule</text>
</g>
<!-- ProjectsComponent&#45;&gt;ProjectModule -->
<g id="edge1" class="edge">
<title>ProjectsComponent&#45;&gt;ProjectModule</title>
<path fill="none" stroke="#000000" d="M384.5,-122.1061C384.5,-141.3391 384.5,-169 384.5,-169 384.5,-169 314.3896,-169 314.3896,-169"/>
<polygon fill="#000000" stroke="#000000" points="314.3896,-165.5001 304.3896,-169 314.3896,-172.5001 314.3896,-165.5001"/>
</g>
<!-- CoreModule -->
<g id="node3" class="node">
<title>CoreModule</title>
<polygon fill="#8dd3c7" stroke="#000000" points="297.7619,-122 294.7619,-126 273.7619,-126 270.7619,-122 211.2381,-122 211.2381,-86 297.7619,-86 297.7619,-122"/>
<text text-anchor="middle" x="254.5" y="-99.8" font-family="Times,serif" font-size="14.00" fill="#000000">CoreModule</text>
</g>
<!-- CoreModule&#45;&gt;ProjectModule -->
<g id="edge2" class="edge">
<title>CoreModule&#45;&gt;ProjectModule</title>
<path fill="none" stroke="#000000" d="M254.5,-122.1061C254.5,-122.1061 254.5,-140.991 254.5,-140.991"/>
<polygon fill="#000000" stroke="#000000" points="251.0001,-140.9909 254.5,-150.991 258.0001,-140.991 251.0001,-140.9909"/>
</g>
<!-- ProjectRoutingModule -->
<g id="node4" class="node">
<title>ProjectRoutingModule</title>
<polygon fill="#8dd3c7" stroke="#000000" points="192.8216,-122 189.8216,-126 168.8216,-126 165.8216,-122 48.1784,-122 48.1784,-86 192.8216,-86 192.8216,-122"/>
<text text-anchor="middle" x="120.5" y="-99.8" font-family="Times,serif" font-size="14.00" fill="#000000">ProjectRoutingModule</text>
</g>
<!-- ProjectRoutingModule&#45;&gt;ProjectModule -->
<g id="edge3" class="edge">
<title>ProjectRoutingModule&#45;&gt;ProjectModule</title>
<path fill="none" stroke="#000000" d="M120.5,-122.1061C120.5,-141.3391 120.5,-169 120.5,-169 120.5,-169 194.6033,-169 194.6033,-169"/>
<polygon fill="#000000" stroke="#000000" points="194.6034,-172.5001 204.6033,-169 194.6033,-165.5001 194.6034,-172.5001"/>
</g>
</g>
</svg>
