<?xml version="1.0" encoding="UTF-8" standalone="no"?>
<!DOCTYPE svg PUBLIC "-//W3C//DTD SVG 1.1//EN"
 "http://www.w3.org/Graphics/SVG/1.1/DTD/svg11.dtd">
<!-- Generated by graphviz version 2.40.1 (20161225.0304)
 -->
<!-- Title: dependencies Pages: 1 -->
<svg width="1513pt" height="211pt"
 viewBox="0.00 0.00 1513.00 211.00" xmlns="http://www.w3.org/2000/svg" xmlns:xlink="http://www.w3.org/1999/xlink">
<g id="graph0" class="graph" transform="scale(1 1) rotate(0) translate(4 207)">
<title>dependencies</title>
<polygon fill="#ffffff" stroke="transparent" points="-4,4 -4,-207 1509,-207 1509,4 -4,4"/>
<text text-anchor="start" x="731.5091" y="-42.4" font-family="sans-serif" font-weight="bold" font-size="14.00" fill="#000000">Legend</text>
<polygon fill="#ffffb3" stroke="transparent" points="518.5,-10 518.5,-30 538.5,-30 538.5,-10 518.5,-10"/>
<text text-anchor="start" x="542.129" y="-15.4" font-family="sans-serif" font-size="14.00" fill="#000000"> &#160;Declarations</text>
<polygon fill="#8dd3c7" stroke="transparent" points="631.5,-10 631.5,-30 651.5,-30 651.5,-10 631.5,-10"/>
<text text-anchor="start" x="655.2251" y="-15.4" font-family="sans-serif" font-size="14.00" fill="#000000"> &#160;Module</text>
<polygon fill="#80b1d3" stroke="transparent" points="717.5,-10 717.5,-30 737.5,-30 737.5,-10 717.5,-10"/>
<text text-anchor="start" x="741.2812" y="-15.4" font-family="sans-serif" font-size="14.00" fill="#000000"> &#160;Bootstrap</text>
<polygon fill="#fdb462" stroke="transparent" points="814.5,-10 814.5,-30 834.5,-30 834.5,-10 814.5,-10"/>
<text text-anchor="start" x="838.1732" y="-15.4" font-family="sans-serif" font-size="14.00" fill="#000000"> &#160;Providers</text>
<polygon fill="#fb8072" stroke="transparent" points="910.5,-10 910.5,-30 930.5,-30 930.5,-10 910.5,-10"/>
<text text-anchor="start" x="934.2258" y="-15.4" font-family="sans-serif" font-size="14.00" fill="#000000"> &#160;Exports</text>
<g id="clust1" class="cluster">
<title>cluster_PagesModule</title>
<polygon fill="none" stroke="#000000" stroke-dasharray="1,5" points="8,-70 8,-195 1497,-195 1497,-70 8,-70"/>
</g>
<g id="clust2" class="cluster">
<title>cluster_PagesModule_declarations</title>
<polygon fill="none" stroke="#000000" points="398,-78 398,-130 1489,-130 1489,-78 398,-78"/>
</g>
<g id="clust10" class="cluster">
<title>cluster_PagesModule_imports</title>
<polygon fill="none" stroke="#000000" points="16,-78 16,-130 390,-130 390,-78 16,-78"/>
</g>
<!-- ClientsComponent -->
<g id="node1" class="node">
<title>ClientsComponent</title>
<polygon fill="#ffffb3" stroke="#000000" points="1480.5,-122 1359.5,-122 1359.5,-86 1480.5,-86 1480.5,-122"/>
<text text-anchor="middle" x="1420" y="-99.8" font-family="Times,serif" font-size="14.00" fill="#000000">ClientsComponent</text>
</g>
<!-- PagesModule -->
<g id="node8" class="node">
<title>PagesModule</title>
<polygon fill="#8dd3c7" stroke="#000000" points="728.2064,-187 725.2064,-191 704.2064,-191 701.2064,-187 635.7936,-187 635.7936,-151 728.2064,-151 728.2064,-187"/>
<text text-anchor="middle" x="682" y="-164.8" font-family="Times,serif" font-size="14.00" fill="#000000">PagesModule</text>
</g>
<!-- ClientsComponent&#45;&gt;PagesModule -->
<g id="edge1" class="edge">
<title>ClientsComponent&#45;&gt;PagesModule</title>
<path fill="none" stroke="#000000" d="M1420,-122.0109C1420,-144.4852 1420,-180 1420,-180 1420,-180 738.1652,-180 738.1652,-180"/>
<polygon fill="#000000" stroke="#000000" points="738.1652,-176.5001 728.1652,-180 738.1652,-183.5001 738.1652,-176.5001"/>
</g>
<!-- ConfigsComponent -->
<g id="node2" class="node">
<title>ConfigsComponent</title>
<polygon fill="#ffffb3" stroke="#000000" points="1341.6652,-122 1216.3348,-122 1216.3348,-86 1341.6652,-86 1341.6652,-122"/>
<text text-anchor="middle" x="1279" y="-99.8" font-family="Times,serif" font-size="14.00" fill="#000000">ConfigsComponent</text>
</g>
<!-- ConfigsComponent&#45;&gt;PagesModule -->
<g id="edge2" class="edge">
<title>ConfigsComponent&#45;&gt;PagesModule</title>
<path fill="none" stroke="#000000" d="M1279,-122.1289C1279,-142.5724 1279,-173 1279,-173 1279,-173 738.3488,-173 738.3488,-173"/>
<polygon fill="#000000" stroke="#000000" points="738.3489,-169.5001 728.3488,-173 738.3488,-176.5001 738.3489,-169.5001"/>
</g>
<!-- ConfigsTableComponent -->
<g id="node3" class="node">
<title>ConfigsTableComponent</title>
<polygon fill="#ffffb3" stroke="#000000" points="1197.5379,-122 1040.4621,-122 1040.4621,-86 1197.5379,-86 1197.5379,-122"/>
<text text-anchor="middle" x="1119" y="-99.8" font-family="Times,serif" font-size="14.00" fill="#000000">ConfigsTableComponent</text>
</g>
<!-- ConfigsTableComponent&#45;&gt;PagesModule -->
<g id="edge3" class="edge">
<title>ConfigsTableComponent&#45;&gt;PagesModule</title>
<path fill="none" stroke="#000000" d="M1119,-122.2667C1119,-140.5552 1119,-166 1119,-166 1119,-166 738.3529,-166 738.3529,-166"/>
<polygon fill="#000000" stroke="#000000" points="738.353,-162.5001 728.3529,-166 738.3529,-169.5001 738.353,-162.5001"/>
</g>
<!-- GlobalClientsComponent -->
<g id="node4" class="node">
<title>GlobalClientsComponent</title>
<polygon fill="#ffffb3" stroke="#000000" points="1022.6024,-122 863.3976,-122 863.3976,-86 1022.6024,-86 1022.6024,-122"/>
<text text-anchor="middle" x="943" y="-99.8" font-family="Times,serif" font-size="14.00" fill="#000000">GlobalClientsComponent</text>
</g>
<!-- GlobalClientsComponent&#45;&gt;PagesModule -->
<g id="edge4" class="edge">
<title>GlobalClientsComponent&#45;&gt;PagesModule</title>
<path fill="none" stroke="#000000" d="M943,-122.0091C943,-138.0494 943,-159 943,-159 943,-159 738.3608,-159 738.3608,-159"/>
<polygon fill="#000000" stroke="#000000" points="738.3609,-155.5001 728.3608,-159 738.3608,-162.5001 738.3609,-155.5001"/>
</g>
<!-- GlobalConfigsComponent -->
<g id="node5" class="node">
<title>GlobalConfigsComponent</title>
<polygon fill="#ffffb3" stroke="#000000" points="845.7674,-122 682.2326,-122 682.2326,-86 845.7674,-86 845.7674,-122"/>
<text text-anchor="middle" x="764" y="-99.8" font-family="Times,serif" font-size="14.00" fill="#000000">GlobalConfigsComponent</text>
</g>
<!-- GlobalConfigsComponent&#45;&gt;PagesModule -->
<g id="edge5" class="edge">
<title>GlobalConfigsComponent&#45;&gt;PagesModule</title>
<path fill="none" stroke="#000000" d="M705.1098,-122.1061C705.1098,-122.1061 705.1098,-140.991 705.1098,-140.991"/>
<polygon fill="#000000" stroke="#000000" points="701.6098,-140.9909 705.1098,-150.991 708.6098,-140.991 701.6098,-140.9909"/>
</g>
<!-- ProjectsComponent -->
<g id="node6" class="node">
<title>ProjectsComponent</title>
<polygon fill="#ffffb3" stroke="#000000" points="664.4313,-122 537.5687,-122 537.5687,-86 664.4313,-86 664.4313,-122"/>
<text text-anchor="middle" x="601" y="-99.8" font-family="Times,serif" font-size="14.00" fill="#000000">ProjectsComponent</text>
</g>
<!-- ProjectsComponent&#45;&gt;PagesModule -->
<g id="edge6" class="edge">
<title>ProjectsComponent&#45;&gt;PagesModule</title>
<path fill="none" stroke="#000000" d="M650.0561,-122.1061C650.0561,-122.1061 650.0561,-140.991 650.0561,-140.991"/>
<polygon fill="#000000" stroke="#000000" points="646.5562,-140.9909 650.0561,-150.991 653.5562,-140.991 646.5562,-140.9909"/>
</g>
<!-- UsersComponent -->
<g id="node7" class="node">
<title>UsersComponent</title>
<polygon fill="#ffffb3" stroke="#000000" points="519.7036,-122 406.2964,-122 406.2964,-86 519.7036,-86 519.7036,-122"/>
<text text-anchor="middle" x="463" y="-99.8" font-family="Times,serif" font-size="14.00" fill="#000000">UsersComponent</text>
</g>
<!-- UsersComponent&#45;&gt;PagesModule -->
<g id="edge7" class="edge">
<title>UsersComponent&#45;&gt;PagesModule</title>
<path fill="none" stroke="#000000" d="M463,-122.0091C463,-138.0494 463,-159 463,-159 463,-159 625.8233,-159 625.8233,-159"/>
<polygon fill="#000000" stroke="#000000" points="625.8234,-162.5001 635.8233,-159 625.8233,-155.5001 625.8234,-162.5001"/>
</g>
<!-- CoreModule -->
<g id="node9" class="node">
<title>CoreModule</title>
<polygon fill="#8dd3c7" stroke="#000000" points="382.2619,-122 379.2619,-126 358.2619,-126 355.2619,-122 295.7381,-122 295.7381,-86 382.2619,-86 382.2619,-122"/>
<text text-anchor="middle" x="339" y="-99.8" font-family="Times,serif" font-size="14.00" fill="#000000">CoreModule</text>
</g>
<!-- CoreModule&#45;&gt;PagesModule -->
<g id="edge8" class="edge">
<title>CoreModule&#45;&gt;PagesModule</title>
<path fill="none" stroke="#000000" d="M339,-122.2667C339,-140.5552 339,-166 339,-166 339,-166 625.7415,-166 625.7415,-166"/>
<polygon fill="#000000" stroke="#000000" points="625.7415,-169.5001 635.7415,-166 625.7415,-162.5001 625.7415,-169.5001"/>
</g>
<!-- PagesRoutingModule -->
<g id="node10" class="node">
<title>PagesRoutingModule</title>
<polygon fill="#8dd3c7" stroke="#000000" points="277.8244,-122 274.8244,-126 253.8244,-126 250.8244,-122 140.1756,-122 140.1756,-86 277.8244,-86 277.8244,-122"/>
<text text-anchor="middle" x="209" y="-99.8" font-family="Times,serif" font-size="14.00" fill="#000000">PagesRoutingModule</text>
</g>
<!-- PagesRoutingModule&#45;&gt;PagesModule -->
<g id="edge9" class="edge">
<title>PagesRoutingModule&#45;&gt;PagesModule</title>
<path fill="none" stroke="#000000" d="M209,-122.1289C209,-142.5724 209,-173 209,-173 209,-173 625.7856,-173 625.7856,-173"/>
<polygon fill="#000000" stroke="#000000" points="625.7856,-176.5001 635.7856,-173 625.7855,-169.5001 625.7856,-176.5001"/>
</g>
<!-- SharedModule -->
<g id="node11" class="node">
<title>SharedModule</title>
<polygon fill="#8dd3c7" stroke="#000000" points="122.4231,-122 119.4231,-126 98.4231,-126 95.4231,-122 23.5769,-122 23.5769,-86 122.4231,-86 122.4231,-122"/>
<text text-anchor="middle" x="73" y="-99.8" font-family="Times,serif" font-size="14.00" fill="#000000">SharedModule</text>
</g>
<!-- SharedModule&#45;&gt;PagesModule -->
<g id="edge10" class="edge">
<title>SharedModule&#45;&gt;PagesModule</title>
<path fill="none" stroke="#000000" d="M73,-122.0109C73,-144.4852 73,-180 73,-180 73,-180 625.7262,-180 625.7262,-180"/>
<polygon fill="#000000" stroke="#000000" points="625.7262,-183.5001 635.7262,-180 625.7261,-176.5001 625.7262,-183.5001"/>
</g>
</g>
</svg>
