<?xml version="1.0" encoding="UTF-8" standalone="no"?>
<!DOCTYPE svg PUBLIC "-//W3C//DTD SVG 1.1//EN"
 "http://www.w3.org/Graphics/SVG/1.1/DTD/svg11.dtd">
<!-- Generated by graphviz version 2.40.1 (20161225.0304)
 -->
<!-- Title: dependencies Pages: 1 -->
<svg width="2131pt" height="284pt"
 viewBox="0.00 0.00 2131.00 284.00" xmlns="http://www.w3.org/2000/svg" xmlns:xlink="http://www.w3.org/1999/xlink">
<g id="graph0" class="graph" transform="scale(1 1) rotate(0) translate(4 280)">
<title>dependencies</title>
<polygon fill="#ffffff" stroke="transparent" points="-4,4 -4,-280 2127,-280 2127,4 -4,4"/>
<text text-anchor="start" x="1040.5091" y="-42.4" font-family="sans-serif" font-weight="bold" font-size="14.00" fill="#000000">Legend</text>
<polygon fill="#ffffb3" stroke="transparent" points="827.5,-10 827.5,-30 847.5,-30 847.5,-10 827.5,-10"/>
<text text-anchor="start" x="851.129" y="-15.4" font-family="sans-serif" font-size="14.00" fill="#000000"> &#160;Declarations</text>
<polygon fill="#8dd3c7" stroke="transparent" points="940.5,-10 940.5,-30 960.5,-30 960.5,-10 940.5,-10"/>
<text text-anchor="start" x="964.2251" y="-15.4" font-family="sans-serif" font-size="14.00" fill="#000000"> &#160;Module</text>
<polygon fill="#80b1d3" stroke="transparent" points="1026.5,-10 1026.5,-30 1046.5,-30 1046.5,-10 1026.5,-10"/>
<text text-anchor="start" x="1050.2812" y="-15.4" font-family="sans-serif" font-size="14.00" fill="#000000"> &#160;Bootstrap</text>
<polygon fill="#fdb462" stroke="transparent" points="1123.5,-10 1123.5,-30 1143.5,-30 1143.5,-10 1123.5,-10"/>
<text text-anchor="start" x="1147.1732" y="-15.4" font-family="sans-serif" font-size="14.00" fill="#000000"> &#160;Providers</text>
<polygon fill="#fb8072" stroke="transparent" points="1219.5,-10 1219.5,-30 1239.5,-30 1239.5,-10 1219.5,-10"/>
<text text-anchor="start" x="1243.2258" y="-15.4" font-family="sans-serif" font-size="14.00" fill="#000000"> &#160;Exports</text>
<g id="clust1" class="cluster">
<title>cluster_AppModule</title>
<polygon fill="none" stroke="#000000" stroke-dasharray="1,5" points="8,-70 8,-268 2115,-268 2115,-70 8,-70"/>
</g>
<g id="clust2" class="cluster">
<title>cluster_AppModule_declarations</title>
<polygon fill="none" stroke="#000000" points="1985,-78 1985,-130 2107,-130 2107,-78 1985,-78"/>
</g>
<g id="clust4" class="cluster">
<title>cluster_AppModule_imports</title>
<polygon fill="none" stroke="#000000" points="16,-78 16,-130 1977,-130 1977,-78 16,-78"/>
</g>
<g id="clust6" class="cluster">
<title>cluster_AppModule_bootstrap</title>
<polygon fill="none" stroke="#000000" points="981,-208 981,-260 1105,-260 1105,-208 981,-208"/>
</g>
<!-- AppComponent -->
<g id="node1" class="node">
<title>AppComponent</title>
<polygon fill="#ffffb3" stroke="#000000" points="2098.9399,-122 1993.0601,-122 1993.0601,-86 2098.9399,-86 2098.9399,-122"/>
<text text-anchor="middle" x="2046" y="-99.8" font-family="Times,serif" font-size="14.00" fill="#000000">AppComponent</text>
</g>
<!-- AppModule -->
<g id="node2" class="node">
<title>AppModule</title>
<polygon fill="#8dd3c7" stroke="#000000" points="1084.6571,-187 1081.6571,-191 1060.6571,-191 1057.6571,-187 1001.3429,-187 1001.3429,-151 1084.6571,-151 1084.6571,-187"/>
<text text-anchor="middle" x="1043" y="-164.8" font-family="Times,serif" font-size="14.00" fill="#000000">AppModule</text>
</g>
<!-- AppComponent&#45;&gt;AppModule -->
<g id="edge1" class="edge">
<title>AppComponent&#45;&gt;AppModule</title>
<path fill="none" stroke="#000000" d="M2046,-122.3228C2046,-145.6602 2046,-183 2046,-183 2046,-183 1094.8207,-183 1094.8207,-183"/>
<polygon fill="#000000" stroke="#000000" points="1094.8207,-179.5001 1084.8207,-183 1094.8207,-186.5001 1094.8207,-179.5001"/>
</g>
<!-- AppComponent  -->
<g id="node18" class="node">
<title>AppComponent </title>
<polygon fill="#80b1d3" stroke="#000000" points="1097.439,-252 988.561,-252 988.561,-216 1097.439,-216 1097.439,-252"/>
<text text-anchor="middle" x="1043" y="-229.8" font-family="Times,serif" font-size="14.00" fill="#000000">AppComponent </text>
</g>
<!-- AppModule&#45;&gt;AppComponent  -->
<g id="edge17" class="edge">
<title>AppModule&#45;&gt;AppComponent </title>
<path fill="none" stroke="#000000" stroke-dasharray="1,5" d="M1043,-187.1061C1043,-187.1061 1043,-205.991 1043,-205.991"/>
<polygon fill="#000000" stroke="#000000" points="1039.5001,-205.9909 1043,-215.991 1046.5001,-205.991 1039.5001,-205.9909"/>
</g>
<!-- AppRoutingModule -->
<g id="node3" class="node">
<title>AppRoutingModule</title>
<polygon fill="#8dd3c7" stroke="#000000" points="1969.2744,-122 1966.2744,-126 1945.2744,-126 1942.2744,-122 1840.7256,-122 1840.7256,-86 1969.2744,-86 1969.2744,-122"/>
<text text-anchor="middle" x="1905" y="-99.8" font-family="Times,serif" font-size="14.00" fill="#000000">AppRoutingModule</text>
</g>
<!-- AppRoutingModule&#45;&gt;AppModule -->
<g id="edge2" class="edge">
<title>AppRoutingModule&#45;&gt;AppModule</title>
<path fill="none" stroke="#000000" d="M1905,-122.2921C1905,-144.2057 1905,-178 1905,-178 1905,-178 1094.8674,-178 1094.8674,-178"/>
<polygon fill="#000000" stroke="#000000" points="1094.8674,-174.5001 1084.8674,-178 1094.8673,-181.5001 1094.8674,-174.5001"/>
</g>
<!-- AuthModule -->
<g id="node4" class="node">
<title>AuthModule</title>
<polygon fill="#8dd3c7" stroke="#000000" points="1822.5482,-122 1819.5482,-126 1798.5482,-126 1795.5482,-122 1735.4518,-122 1735.4518,-86 1822.5482,-86 1822.5482,-122"/>
<text text-anchor="middle" x="1779" y="-99.8" font-family="Times,serif" font-size="14.00" fill="#000000">AuthModule</text>
</g>
<!-- AuthModule&#45;&gt;AppModule -->
<g id="edge3" class="edge">
<title>AuthModule&#45;&gt;AppModule</title>
<path fill="none" stroke="#000000" d="M1779,-122.0267C1779,-142.7672 1779,-174 1779,-174 1779,-174 1094.6793,-174 1094.6793,-174"/>
<polygon fill="#000000" stroke="#000000" points="1094.6794,-170.5001 1084.6793,-174 1094.6793,-177.5001 1094.6794,-170.5001"/>
</g>
<!-- AuthRoutingModule -->
<g id="node5" class="node">
<title>AuthRoutingModule</title>
<polygon fill="#8dd3c7" stroke="#000000" points="1717.1652,-122 1714.1652,-126 1693.1652,-126 1690.1652,-122 1584.8348,-122 1584.8348,-86 1717.1652,-86 1717.1652,-122"/>
<text text-anchor="middle" x="1651" y="-99.8" font-family="Times,serif" font-size="14.00" fill="#000000">AuthRoutingModule</text>
</g>
<!-- AuthRoutingModule&#45;&gt;AppModule -->
<g id="edge4" class="edge">
<title>AuthRoutingModule&#45;&gt;AppModule</title>
<path fill="none" stroke="#000000" d="M1651,-122.1061C1651,-141.3391 1651,-169 1651,-169 1651,-169 1094.7903,-169 1094.7903,-169"/>
<polygon fill="#000000" stroke="#000000" points="1094.7903,-165.5001 1084.7903,-169 1094.7903,-172.5001 1094.7903,-165.5001"/>
</g>
<!-- ClientModule -->
<g id="node6" class="node">
<title>ClientModule</title>
<polygon fill="#8dd3c7" stroke="#000000" points="1566.7731,-122 1563.7731,-126 1542.7731,-126 1539.7731,-122 1473.2269,-122 1473.2269,-86 1566.7731,-86 1566.7731,-122"/>
<text text-anchor="middle" x="1520" y="-99.8" font-family="Times,serif" font-size="14.00" fill="#000000">ClientModule</text>
</g>
<!-- ClientModule&#45;&gt;AppModule -->
<g id="edge5" class="edge">
<title>ClientModule&#45;&gt;AppModule</title>
<path fill="none" stroke="#000000" d="M1520,-122.302C1520,-140.2699 1520,-165 1520,-165 1520,-165 1094.9125,-165 1094.9125,-165"/>
<polygon fill="#000000" stroke="#000000" points="1094.9125,-161.5001 1084.9125,-165 1094.9125,-168.5001 1094.9125,-161.5001"/>
</g>
<!-- ClientRoutingModule -->
<g id="node7" class="node">
<title>ClientRoutingModule</title>
<polygon fill="#8dd3c7" stroke="#000000" points="1455.3906,-122 1452.3906,-126 1431.3906,-126 1428.3906,-122 1316.6094,-122 1316.6094,-86 1455.3906,-86 1455.3906,-122"/>
<text text-anchor="middle" x="1386" y="-99.8" font-family="Times,serif" font-size="14.00" fill="#000000">ClientRoutingModule</text>
</g>
<!-- ClientRoutingModule&#45;&gt;AppModule -->
<g id="edge6" class="edge">
<title>ClientRoutingModule&#45;&gt;AppModule</title>
<path fill="none" stroke="#000000" d="M1386,-122.027C1386,-138.3976 1386,-160 1386,-160 1386,-160 1094.7156,-160 1094.7156,-160"/>
<polygon fill="#000000" stroke="#000000" points="1094.7157,-156.5001 1084.7156,-160 1094.7156,-163.5001 1094.7157,-156.5001"/>
</g>
<!-- ConfigModule -->
<g id="node8" class="node">
<title>ConfigModule</title>
<polygon fill="#8dd3c7" stroke="#000000" points="1298.4386,-122 1295.4386,-126 1274.4386,-126 1271.4386,-122 1199.5614,-122 1199.5614,-86 1298.4386,-86 1298.4386,-122"/>
<text text-anchor="middle" x="1249" y="-99.8" font-family="Times,serif" font-size="14.00" fill="#000000">ConfigModule</text>
</g>
<!-- ConfigModule&#45;&gt;AppModule -->
<g id="edge7" class="edge">
<title>ConfigModule&#45;&gt;AppModule</title>
<path fill="none" stroke="#000000" d="M1249,-122.1871C1249,-137.1824 1249,-156 1249,-156 1249,-156 1094.6872,-156 1094.6872,-156"/>
<polygon fill="#000000" stroke="#000000" points="1094.6872,-152.5001 1084.6872,-156 1094.6871,-159.5001 1094.6872,-152.5001"/>
</g>
<!-- ConfigRoutingModule -->
<g id="node9" class="node">
<title>ConfigRoutingModule</title>
<polygon fill="#8dd3c7" stroke="#000000" points="1181.5561,-122 1178.5561,-126 1157.5561,-126 1154.5561,-122 1038.4439,-122 1038.4439,-86 1181.5561,-86 1181.5561,-122"/>
<text text-anchor="middle" x="1110" y="-99.8" font-family="Times,serif" font-size="14.00" fill="#000000">ConfigRoutingModule</text>
</g>
<!-- ConfigRoutingModule&#45;&gt;AppModule -->
<g id="edge8" class="edge">
<title>ConfigRoutingModule&#45;&gt;AppModule</title>
<path fill="none" stroke="#000000" d="M1061.5253,-122.1061C1061.5253,-122.1061 1061.5253,-140.991 1061.5253,-140.991"/>
<polygon fill="#000000" stroke="#000000" points="1058.0253,-140.9909 1061.5253,-150.991 1065.0253,-140.991 1058.0253,-140.9909"/>
</g>
<!-- CoreModule -->
<g id="node10" class="node">
<title>CoreModule</title>
<polygon fill="#8dd3c7" stroke="#000000" points="1020.2619,-122 1017.2619,-126 996.2619,-126 993.2619,-122 933.7381,-122 933.7381,-86 1020.2619,-86 1020.2619,-122"/>
<text text-anchor="middle" x="977" y="-99.8" font-family="Times,serif" font-size="14.00" fill="#000000">CoreModule</text>
</g>
<!-- CoreModule&#45;&gt;AppModule -->
<g id="edge9" class="edge">
<title>CoreModule&#45;&gt;AppModule</title>
<path fill="none" stroke="#000000" d="M1010.7763,-122.1061C1010.7763,-122.1061 1010.7763,-140.991 1010.7763,-140.991"/>
<polygon fill="#000000" stroke="#000000" points="1007.2764,-140.9909 1010.7763,-150.991 1014.2764,-140.991 1007.2764,-140.9909"/>
</g>
<!-- CoreRoutingModule -->
<g id="node11" class="node">
<title>CoreRoutingModule</title>
<polygon fill="#8dd3c7" stroke="#000000" points="915.8795,-122 912.8795,-126 891.8795,-126 888.8795,-122 784.1205,-122 784.1205,-86 915.8795,-86 915.8795,-122"/>
<text text-anchor="middle" x="850" y="-99.8" font-family="Times,serif" font-size="14.00" fill="#000000">CoreRoutingModule</text>
</g>
<!-- CoreRoutingModule&#45;&gt;AppModule -->
<g id="edge10" class="edge">
<title>CoreRoutingModule&#45;&gt;AppModule</title>
<path fill="none" stroke="#000000" d="M850,-122.1871C850,-137.1824 850,-156 850,-156 850,-156 991.1219,-156 991.1219,-156"/>
<polygon fill="#000000" stroke="#000000" points="991.1219,-159.5001 1001.1219,-156 991.1218,-152.5001 991.1219,-159.5001"/>
</g>
<!-- MockModule -->
<g id="node12" class="node">
<title>MockModule</title>
<polygon fill="#8dd3c7" stroke="#000000" points="766.2092,-122 763.2092,-126 742.2092,-126 739.2092,-122 673.7908,-122 673.7908,-86 766.2092,-86 766.2092,-122"/>
<text text-anchor="middle" x="720" y="-99.8" font-family="Times,serif" font-size="14.00" fill="#000000">MockModule</text>
</g>
<!-- MockModule&#45;&gt;AppModule -->
<g id="edge11" class="edge">
<title>MockModule&#45;&gt;AppModule</title>
<path fill="none" stroke="#000000" d="M720,-122.027C720,-138.3976 720,-160 720,-160 720,-160 991.1045,-160 991.1045,-160"/>
<polygon fill="#000000" stroke="#000000" points="991.1046,-163.5001 1001.1045,-160 991.1045,-156.5001 991.1046,-163.5001"/>
</g>
<!-- ProjectModule -->
<g id="node13" class="node">
<title>ProjectModule</title>
<polygon fill="#8dd3c7" stroke="#000000" points="655.7036,-122 652.7036,-126 631.7036,-126 628.7036,-122 556.2964,-122 556.2964,-86 655.7036,-86 655.7036,-122"/>
<text text-anchor="middle" x="606" y="-99.8" font-family="Times,serif" font-size="14.00" fill="#000000">ProjectModule</text>
</g>
<!-- ProjectModule&#45;&gt;AppModule -->
<g id="edge12" class="edge">
<title>ProjectModule&#45;&gt;AppModule</title>
<path fill="none" stroke="#000000" d="M606,-122.302C606,-140.2699 606,-165 606,-165 606,-165 991.0986,-165 991.0986,-165"/>
<polygon fill="#000000" stroke="#000000" points="991.0986,-168.5001 1001.0986,-165 991.0986,-161.5001 991.0986,-168.5001"/>
</g>
<!-- ProjectRoutingModule -->
<g id="node14" class="node">
<title>ProjectRoutingModule</title>
<polygon fill="#8dd3c7" stroke="#000000" points="538.3216,-122 535.3216,-126 514.3216,-126 511.3216,-122 393.6784,-122 393.6784,-86 538.3216,-86 538.3216,-122"/>
<text text-anchor="middle" x="466" y="-99.8" font-family="Times,serif" font-size="14.00" fill="#000000">ProjectRoutingModule</text>
</g>
<!-- ProjectRoutingModule&#45;&gt;AppModule -->
<g id="edge13" class="edge">
<title>ProjectRoutingModule&#45;&gt;AppModule</title>
<path fill="none" stroke="#000000" d="M466,-122.1061C466,-141.3391 466,-169 466,-169 466,-169 991.0388,-169 991.0388,-169"/>
<polygon fill="#000000" stroke="#000000" points="991.0388,-172.5001 1001.0388,-169 991.0388,-165.5001 991.0388,-172.5001"/>
</g>
<!-- SharedModule -->
<g id="node15" class="node">
<title>SharedModule</title>
<polygon fill="#8dd3c7" stroke="#000000" points="376.4231,-122 373.4231,-126 352.4231,-126 349.4231,-122 277.5769,-122 277.5769,-86 376.4231,-86 376.4231,-122"/>
<text text-anchor="middle" x="327" y="-99.8" font-family="Times,serif" font-size="14.00" fill="#000000">SharedModule</text>
</g>
<!-- SharedModule&#45;&gt;AppModule -->
<g id="edge14" class="edge">
<title>SharedModule&#45;&gt;AppModule</title>
<path fill="none" stroke="#000000" d="M327,-122.0267C327,-142.7672 327,-174 327,-174 327,-174 991.1474,-174 991.1474,-174"/>
<polygon fill="#000000" stroke="#000000" points="991.1474,-177.5001 1001.1474,-174 991.1473,-170.5001 991.1474,-177.5001"/>
</g>
<!-- UserModule -->
<g id="node16" class="node">
<title>UserModule</title>
<polygon fill="#8dd3c7" stroke="#000000" points="259.9762,-122 256.9762,-126 235.9762,-126 232.9762,-122 174.0238,-122 174.0238,-86 259.9762,-86 259.9762,-122"/>
<text text-anchor="middle" x="217" y="-99.8" font-family="Times,serif" font-size="14.00" fill="#000000">UserModule</text>
</g>
<!-- UserModule&#45;&gt;AppModule -->
<g id="edge15" class="edge">
<title>UserModule&#45;&gt;AppModule</title>
<path fill="none" stroke="#000000" d="M217,-122.2921C217,-144.2057 217,-178 217,-178 217,-178 991.1881,-178 991.1881,-178"/>
<polygon fill="#000000" stroke="#000000" points="991.1882,-181.5001 1001.1881,-178 991.1881,-174.5001 991.1882,-181.5001"/>
</g>
<!-- UserRoutingModule -->
<g id="node17" class="node">
<title>UserRoutingModule</title>
<polygon fill="#8dd3c7" stroke="#000000" points="155.594,-122 152.594,-126 131.594,-126 128.594,-122 24.406,-122 24.406,-86 155.594,-86 155.594,-122"/>
<text text-anchor="middle" x="90" y="-99.8" font-family="Times,serif" font-size="14.00" fill="#000000">UserRoutingModule</text>
</g>
<!-- UserRoutingModule&#45;&gt;AppModule -->
<g id="edge16" class="edge">
<title>UserRoutingModule&#45;&gt;AppModule</title>
<path fill="none" stroke="#000000" d="M90,-122.3228C90,-145.6602 90,-183 90,-183 90,-183 991.1301,-183 991.1301,-183"/>
<polygon fill="#000000" stroke="#000000" points="991.1301,-186.5001 1001.1301,-183 991.13,-179.5001 991.1301,-186.5001"/>
</g>
</g>
</svg>
