<?xml version="1.0" encoding="UTF-8" standalone="no"?>
<!DOCTYPE svg PUBLIC "-//W3C//DTD SVG 1.1//EN"
 "http://www.w3.org/Graphics/SVG/1.1/DTD/svg11.dtd">
<!-- Generated by graphviz version 2.40.1 (20161225.0304)
 -->
<!-- Title: dependencies Pages: 1 -->
<svg width="1317pt" height="284pt"
 viewBox="0.00 0.00 1317.00 284.00" xmlns="http://www.w3.org/2000/svg" xmlns:xlink="http://www.w3.org/1999/xlink">
<g id="graph0" class="graph" transform="scale(1 1) rotate(0) translate(4 280)">
<title>dependencies</title>
<polygon fill="#ffffff" stroke="transparent" points="-4,4 -4,-280 1313,-280 1313,4 -4,4"/>
<text text-anchor="start" x="633.5091" y="-42.4" font-family="sans-serif" font-weight="bold" font-size="14.00" fill="#000000">Legend</text>
<polygon fill="#ffffb3" stroke="transparent" points="420.5,-10 420.5,-30 440.5,-30 440.5,-10 420.5,-10"/>
<text text-anchor="start" x="444.129" y="-15.4" font-family="sans-serif" font-size="14.00" fill="#000000"> &#160;Declarations</text>
<polygon fill="#8dd3c7" stroke="transparent" points="533.5,-10 533.5,-30 553.5,-30 553.5,-10 533.5,-10"/>
<text text-anchor="start" x="557.2251" y="-15.4" font-family="sans-serif" font-size="14.00" fill="#000000"> &#160;Module</text>
<polygon fill="#80b1d3" stroke="transparent" points="619.5,-10 619.5,-30 639.5,-30 639.5,-10 619.5,-10"/>
<text text-anchor="start" x="643.2812" y="-15.4" font-family="sans-serif" font-size="14.00" fill="#000000"> &#160;Bootstrap</text>
<polygon fill="#fdb462" stroke="transparent" points="716.5,-10 716.5,-30 736.5,-30 736.5,-10 716.5,-10"/>
<text text-anchor="start" x="740.1732" y="-15.4" font-family="sans-serif" font-size="14.00" fill="#000000"> &#160;Providers</text>
<polygon fill="#fb8072" stroke="transparent" points="812.5,-10 812.5,-30 832.5,-30 832.5,-10 812.5,-10"/>
<text text-anchor="start" x="836.2258" y="-15.4" font-family="sans-serif" font-size="14.00" fill="#000000"> &#160;Exports</text>
<g id="clust1" class="cluster">
<title>cluster_AppModule</title>
<polygon fill="none" stroke="#000000" stroke-dasharray="1,5" points="8,-70 8,-268 1301,-268 1301,-70 8,-70"/>
</g>
<g id="clust2" class="cluster">
<title>cluster_AppModule_declarations</title>
<polygon fill="none" stroke="#000000" points="1171,-78 1171,-130 1293,-130 1293,-78 1171,-78"/>
</g>
<g id="clust4" class="cluster">
<title>cluster_AppModule_imports</title>
<polygon fill="none" stroke="#000000" points="16,-78 16,-130 1163,-130 1163,-78 16,-78"/>
</g>
<g id="clust6" class="cluster">
<title>cluster_AppModule_bootstrap</title>
<polygon fill="none" stroke="#000000" points="583,-208 583,-260 707,-260 707,-208 583,-208"/>
</g>
<!-- AppComponent -->
<g id="node1" class="node">
<title>AppComponent</title>
<polygon fill="#ffffb3" stroke="#000000" points="1284.9399,-122 1179.0601,-122 1179.0601,-86 1284.9399,-86 1284.9399,-122"/>
<text text-anchor="middle" x="1232" y="-99.8" font-family="Times,serif" font-size="14.00" fill="#000000">AppComponent</text>
</g>
<!-- AppModule -->
<g id="node2" class="node">
<title>AppModule</title>
<polygon fill="#8dd3c7" stroke="#000000" points="686.6571,-187 683.6571,-191 662.6571,-191 659.6571,-187 603.3429,-187 603.3429,-151 686.6571,-151 686.6571,-187"/>
<text text-anchor="middle" x="645" y="-164.8" font-family="Times,serif" font-size="14.00" fill="#000000">AppModule</text>
</g>
<!-- AppComponent&#45;&gt;AppModule -->
<g id="edge1" class="edge">
<title>AppComponent&#45;&gt;AppModule</title>
<path fill="none" stroke="#000000" d="M1232,-122.0109C1232,-144.4852 1232,-180 1232,-180 1232,-180 696.745,-180 696.745,-180"/>
<polygon fill="#000000" stroke="#000000" points="696.745,-176.5001 686.745,-180 696.745,-183.5001 696.745,-176.5001"/>
</g>
<!-- AppComponent  -->
<g id="node12" class="node">
<title>AppComponent </title>
<polygon fill="#80b1d3" stroke="#000000" points="699.439,-252 590.561,-252 590.561,-216 699.439,-216 699.439,-252"/>
<text text-anchor="middle" x="645" y="-229.8" font-family="Times,serif" font-size="14.00" fill="#000000">AppComponent </text>
</g>
<!-- AppModule&#45;&gt;AppComponent  -->
<g id="edge11" class="edge">
<title>AppModule&#45;&gt;AppComponent </title>
<path fill="none" stroke="#000000" stroke-dasharray="1,5" d="M645,-187.1061C645,-187.1061 645,-205.991 645,-205.991"/>
<polygon fill="#000000" stroke="#000000" points="641.5001,-205.9909 645,-215.991 648.5001,-205.991 641.5001,-205.9909"/>
</g>
<!-- AppRoutingModule -->
<g id="node3" class="node">
<title>AppRoutingModule</title>
<polygon fill="#8dd3c7" stroke="#000000" points="1155.2744,-122 1152.2744,-126 1131.2744,-126 1128.2744,-122 1026.7256,-122 1026.7256,-86 1155.2744,-86 1155.2744,-122"/>
<text text-anchor="middle" x="1091" y="-99.8" font-family="Times,serif" font-size="14.00" fill="#000000">AppRoutingModule</text>
</g>
<!-- AppRoutingModule&#45;&gt;AppModule -->
<g id="edge2" class="edge">
<title>AppRoutingModule&#45;&gt;AppModule</title>
<path fill="none" stroke="#000000" d="M1091,-122.1289C1091,-142.5724 1091,-173 1091,-173 1091,-173 696.9586,-173 696.9586,-173"/>
<polygon fill="#000000" stroke="#000000" points="696.9586,-169.5001 686.9586,-173 696.9586,-176.5001 696.9586,-169.5001"/>
</g>
<!-- AuthModule -->
<g id="node4" class="node">
<title>AuthModule</title>
<polygon fill="#8dd3c7" stroke="#000000" points="1008.5482,-122 1005.5482,-126 984.5482,-126 981.5482,-122 921.4518,-122 921.4518,-86 1008.5482,-86 1008.5482,-122"/>
<text text-anchor="middle" x="965" y="-99.8" font-family="Times,serif" font-size="14.00" fill="#000000">AuthModule</text>
</g>
<!-- AuthModule&#45;&gt;AppModule -->
<g id="edge3" class="edge">
<title>AuthModule&#45;&gt;AppModule</title>
<path fill="none" stroke="#000000" d="M965,-122.2667C965,-140.5552 965,-166 965,-166 965,-166 696.8344,-166 696.8344,-166"/>
<polygon fill="#000000" stroke="#000000" points="696.8344,-162.5001 686.8344,-166 696.8344,-169.5001 696.8344,-162.5001"/>
</g>
<!-- AuthRoutingModule -->
<g id="node5" class="node">
<title>AuthRoutingModule</title>
<polygon fill="#8dd3c7" stroke="#000000" points="903.1652,-122 900.1652,-126 879.1652,-126 876.1652,-122 770.8348,-122 770.8348,-86 903.1652,-86 903.1652,-122"/>
<text text-anchor="middle" x="837" y="-99.8" font-family="Times,serif" font-size="14.00" fill="#000000">AuthRoutingModule</text>
</g>
<!-- AuthRoutingModule&#45;&gt;AppModule -->
<g id="edge4" class="edge">
<title>AuthRoutingModule&#45;&gt;AppModule</title>
<path fill="none" stroke="#000000" d="M837,-122.0091C837,-138.0494 837,-159 837,-159 837,-159 696.6611,-159 696.6611,-159"/>
<polygon fill="#000000" stroke="#000000" points="696.6612,-155.5001 686.6611,-159 696.6611,-162.5001 696.6612,-155.5001"/>
</g>
<!-- CoreModule -->
<g id="node6" class="node">
<title>CoreModule</title>
<polygon fill="#8dd3c7" stroke="#000000" points="752.2619,-122 749.2619,-126 728.2619,-126 725.2619,-122 665.7381,-122 665.7381,-86 752.2619,-86 752.2619,-122"/>
<text text-anchor="middle" x="709" y="-99.8" font-family="Times,serif" font-size="14.00" fill="#000000">CoreModule</text>
</g>
<!-- CoreModule&#45;&gt;AppModule -->
<g id="edge5" class="edge">
<title>CoreModule&#45;&gt;AppModule</title>
<path fill="none" stroke="#000000" d="M676.2237,-122.1061C676.2237,-122.1061 676.2237,-140.991 676.2237,-140.991"/>
<polygon fill="#000000" stroke="#000000" points="672.7238,-140.9909 676.2237,-150.991 679.7238,-140.991 672.7238,-140.9909"/>
</g>
<!-- CoreRoutingModule -->
<g id="node7" class="node">
<title>CoreRoutingModule</title>
<polygon fill="#8dd3c7" stroke="#000000" points="647.8795,-122 644.8795,-126 623.8795,-126 620.8795,-122 516.1205,-122 516.1205,-86 647.8795,-86 647.8795,-122"/>
<text text-anchor="middle" x="582" y="-99.8" font-family="Times,serif" font-size="14.00" fill="#000000">CoreRoutingModule</text>
</g>
<!-- CoreRoutingModule&#45;&gt;AppModule -->
<g id="edge6" class="edge">
<title>CoreRoutingModule&#45;&gt;AppModule</title>
<path fill="none" stroke="#000000" d="M625.5558,-122.1061C625.5558,-122.1061 625.5558,-140.991 625.5558,-140.991"/>
<polygon fill="#000000" stroke="#000000" points="622.0558,-140.9909 625.5558,-150.991 629.0558,-140.991 622.0558,-140.9909"/>
</g>
<!-- MockModule -->
<g id="node8" class="node">
<title>MockModule</title>
<polygon fill="#8dd3c7" stroke="#000000" points="498.2092,-122 495.2092,-126 474.2092,-126 471.2092,-122 405.7908,-122 405.7908,-86 498.2092,-86 498.2092,-122"/>
<text text-anchor="middle" x="452" y="-99.8" font-family="Times,serif" font-size="14.00" fill="#000000">MockModule</text>
</g>
<!-- MockModule&#45;&gt;AppModule -->
<g id="edge7" class="edge">
<title>MockModule&#45;&gt;AppModule</title>
<path fill="none" stroke="#000000" d="M452,-122.0091C452,-138.0494 452,-159 452,-159 452,-159 593.1219,-159 593.1219,-159"/>
<polygon fill="#000000" stroke="#000000" points="593.1219,-162.5001 603.1219,-159 593.1218,-155.5001 593.1219,-162.5001"/>
</g>
<!-- PagesModule -->
<g id="node9" class="node">
<title>PagesModule</title>
<polygon fill="#8dd3c7" stroke="#000000" points="388.2064,-122 385.2064,-126 364.2064,-126 361.2064,-122 295.7936,-122 295.7936,-86 388.2064,-86 388.2064,-122"/>
<text text-anchor="middle" x="342" y="-99.8" font-family="Times,serif" font-size="14.00" fill="#000000">PagesModule</text>
</g>
<!-- PagesModule&#45;&gt;AppModule -->
<g id="edge8" class="edge">
<title>PagesModule&#45;&gt;AppModule</title>
<path fill="none" stroke="#000000" d="M342,-122.2667C342,-140.5552 342,-166 342,-166 342,-166 593.1873,-166 593.1873,-166"/>
<polygon fill="#000000" stroke="#000000" points="593.1873,-169.5001 603.1873,-166 593.1872,-162.5001 593.1873,-169.5001"/>
</g>
<!-- PagesRoutingModule -->
<g id="node10" class="node">
<title>PagesRoutingModule</title>
<polygon fill="#8dd3c7" stroke="#000000" points="277.8244,-122 274.8244,-126 253.8244,-126 250.8244,-122 140.1756,-122 140.1756,-86 277.8244,-86 277.8244,-122"/>
<text text-anchor="middle" x="209" y="-99.8" font-family="Times,serif" font-size="14.00" fill="#000000">PagesRoutingModule</text>
</g>
<!-- PagesRoutingModule&#45;&gt;AppModule -->
<g id="edge9" class="edge">
<title>PagesRoutingModule&#45;&gt;AppModule</title>
<path fill="none" stroke="#000000" d="M209,-122.1289C209,-142.5724 209,-173 209,-173 209,-173 593.1945,-173 593.1945,-173"/>
<polygon fill="#000000" stroke="#000000" points="593.1945,-176.5001 603.1945,-173 593.1945,-169.5001 593.1945,-176.5001"/>
</g>
<!-- SharedModule -->
<g id="node11" class="node">
<title>SharedModule</title>
<polygon fill="#8dd3c7" stroke="#000000" points="122.4231,-122 119.4231,-126 98.4231,-126 95.4231,-122 23.5769,-122 23.5769,-86 122.4231,-86 122.4231,-122"/>
<text text-anchor="middle" x="73" y="-99.8" font-family="Times,serif" font-size="14.00" fill="#000000">SharedModule</text>
</g>
<!-- SharedModule&#45;&gt;AppModule -->
<g id="edge10" class="edge">
<title>SharedModule&#45;&gt;AppModule</title>
<path fill="none" stroke="#000000" d="M73,-122.0109C73,-144.4852 73,-180 73,-180 73,-180 592.9395,-180 592.9395,-180"/>
<polygon fill="#000000" stroke="#000000" points="592.9395,-183.5001 602.9395,-180 592.9394,-176.5001 592.9395,-183.5001"/>
</g>
</g>
</svg>
